<svg width="160" height="160" viewBox="0 0 160 160" fill="none" xmlns="http://www.w3.org/2000/svg">
<circle cx="80" cy="80" r="80" fill="#E8DEF8"/>
<path d="M113.125 62.3333C119.223 62.3333 124.167 57.3898 124.167 51.2917C124.167 45.1935 119.223 40.25 113.125 40.25C107.027 40.25 102.083 45.1935 102.083 51.2917C102.083 57.3898 107.027 62.3333 113.125 62.3333Z" fill="#65558F"/>
<path d="M113.125 62.3333C119.223 62.3333 124.167 57.3898 124.167 51.2917C124.167 45.1935 119.223 40.25 113.125 40.25C107.027 40.25 102.083 45.1935 102.083 51.2917C102.083 57.3898 107.027 62.3333 113.125 62.3333Z" fill="#65558F"/>
<path opacity="0.4" d="M118.514 68.1192C121.296 67.2358 124.167 69.4 124.167 72.3592V95.5025C124.167 110.961 115.334 117.586 102.084 117.586H57.9168C44.6668 117.586 35.8335 110.961 35.8335 95.5025V64.5858C35.8335 49.1275 44.6668 42.5025 57.9168 42.5025H91.5276C94.3984 42.5025 96.3418 45.1525 95.8118 47.935C95.2818 50.5409 95.3702 53.3233 96.1652 56.1942C97.7994 62.1125 102.613 66.8383 108.532 68.3841C112.021 69.2675 115.422 69.0908 118.514 68.1192Z" fill="#65558F"/>
<path d="M80.0001 83.8425C76.2901 83.8425 72.5359 82.6942 69.6651 80.3534L55.8409 69.3117C54.4276 68.1634 54.1626 66.0875 55.3109 64.6742C56.4593 63.2609 58.535 62.9959 59.9484 64.1442L73.7726 75.1859C77.1292 77.88 82.8267 77.88 86.1834 75.1859L91.395 71.0342C92.8083 69.8859 94.9284 70.1067 96.0326 71.5642C97.1809 72.9775 96.9601 75.0975 95.5026 76.2017L90.2908 80.3534C87.4642 82.6942 83.7101 83.8425 80.0001 83.8425Z" fill="#65558F"/>
</svg>
