<svg width="262" height="248" viewBox="0 0 262 248" fill="none" xmlns="http://www.w3.org/2000/svg">
<path d="M70.3045 46.5955C64.4861 50.0596 58.4344 53.2127 52.5383 56.6627C25.3977 72.5413 3.0503 93.8424 0.314324 126.469C-1.70054 150.358 5.83577 178.156 26.847 191.977C32.0338 195.374 37.8214 197.75 43.8991 198.976C52.4747 200.722 61.5734 200.037 70.3045 199.535V46.5955Z" fill="#A47DE9"/>
<path d="M196.301 12.6184H112.037C106.611 16.0033 101.523 19.9026 96.8442 24.2622H212.653C207.548 19.9172 202.077 16.0214 196.301 12.6184Z" fill="#A47DE9"/>
<path d="M192.363 10.4268C186.26 7.15379 179.822 4.54658 173.162 2.65013C153.006 -3.00564 133.048 0.762513 115.777 10.4268H192.363Z" fill="#A47DE9"/>
<path d="M241.759 58.3453C234.443 46.5148 225.492 35.778 215.17 26.4539H137.071V209.786C142.904 211.731 148.873 213.243 154.929 214.31C194.753 220.673 239.306 206.498 254.746 166.371C268.596 130.4 261.71 90.3711 241.759 58.3453Z" fill="#A47DE9"/>
<path d="M132.285 26.4539H94.5467C92.9866 27.9951 91.469 29.581 89.9938 31.2118C85.5936 35.9852 80.5827 40.157 75.0908 43.6191V199.294C88.7329 198.783 102.381 200.136 115.657 203.317C121.313 204.667 126.77 206.463 132.257 208.266L132.285 26.4539Z" fill="#A47DE9"/>
<g opacity="0.8">
<path d="M70.3045 46.5955C64.4861 50.0596 58.4344 53.2127 52.5383 56.6627C25.3977 72.5413 3.0503 93.8424 0.314324 126.469C-1.70054 150.358 5.83577 178.156 26.847 191.977C32.0338 195.374 37.8214 197.75 43.8991 198.976C52.4747 200.722 61.5734 200.037 70.3045 199.535V46.5955Z" fill="white"/>
<path d="M196.301 12.6184H112.037C106.611 16.0033 101.523 19.9026 96.8442 24.2622H212.653C207.548 19.9172 202.077 16.0214 196.301 12.6184Z" fill="white"/>
<path d="M192.363 10.4268C186.26 7.15379 179.822 4.54658 173.162 2.65013C153.006 -3.00564 133.048 0.762513 115.777 10.4268H192.363Z" fill="white"/>
<path d="M241.759 58.3453C234.443 46.5148 225.492 35.778 215.17 26.4539H137.071V209.786C142.904 211.731 148.873 213.243 154.929 214.31C194.753 220.673 239.306 206.498 254.746 166.371C268.596 130.4 261.71 90.3711 241.759 58.3453Z" fill="white"/>
<path d="M132.285 26.4539H94.5467C92.9866 27.9951 91.469 29.581 89.9938 31.2118C85.5936 35.9852 80.5827 40.157 75.0908 43.6191V199.294C88.7329 198.783 102.381 200.136 115.657 203.317C121.313 204.667 126.77 206.463 132.257 208.266L132.285 26.4539Z" fill="white"/>
</g>
<path d="M104.572 32.7106H94.2852V34.9517V48.1438V50.3919H116.102V34.9517H105.3L104.572 32.7106Z" fill="#A47DE9"/>
<path d="M104.572 66.3553H94.2852V68.5964V81.7885V84.0367H116.102V68.5964H105.3L104.572 66.3553Z" fill="#A47DE9"/>
<path d="M104.572 100H94.2852V102.241V115.433V117.681H116.102V102.241H105.3L104.572 100Z" fill="#A47DE9"/>
<path d="M104.572 133.645H94.2852V135.886V149.078V151.326H116.102V135.886H105.3L104.572 133.645Z" fill="#A47DE9"/>
<path d="M104.572 167.29H94.2852V169.538V182.723V184.971H116.102V169.538H105.3L104.572 167.29Z" fill="#A47DE9"/>
<path d="M170.518 32.7106H160.231V34.9517V48.1438V50.3919H182.056V34.9517H171.253L170.518 32.7106Z" fill="#A47DE9"/>
<path d="M213.311 34.9517L212.575 32.7106H202.289V34.9517V48.1438V50.3919H224.106V34.9517H213.311Z" fill="#A47DE9"/>
<path d="M170.518 66.3553H160.231V68.5964V81.7885V84.0367H182.056V68.5964H171.253L170.518 66.3553Z" fill="#A47DE9"/>
<path d="M212.575 100H202.289V102.241V115.433V117.681H224.106V102.241H213.311L212.575 100Z" fill="#A47DE9"/>
<path d="M212.575 66.3553H202.289V68.5964V81.7885V84.0367H224.106V68.5964H213.311L212.575 66.3553Z" fill="#A47DE9"/>
<path d="M170.518 100H160.231V102.241V115.433V117.681H182.056V102.241H171.253L170.518 100Z" fill="#A47DE9"/>
<path d="M170.518 133.645H160.231V135.886V149.078V151.326H182.056V135.886H171.253L170.518 133.645Z" fill="#A47DE9"/>
<path d="M212.575 133.645H202.289V135.886V149.078V151.326H224.106V135.886H213.311L212.575 133.645Z" fill="#A47DE9"/>
<path d="M170.518 167.29H160.231V169.538V182.723V184.971H182.056V169.538H171.253L170.518 167.29Z" fill="#A47DE9"/>
<path d="M212.575 167.29H202.289V169.538V182.723V184.971H224.106V169.538H213.311L212.575 167.29Z" fill="#A47DE9"/>
<g opacity="0.5">
<path d="M104.572 32.7106H94.2852V34.9517V48.1438V50.3919H116.102V34.9517H105.3L104.572 32.7106Z" fill="white"/>
<path d="M104.572 66.3553H94.2852V68.5964V81.7885V84.0367H116.102V68.5964H105.3L104.572 66.3553Z" fill="white"/>
<path d="M104.572 100H94.2852V102.241V115.433V117.681H116.102V102.241H105.3L104.572 100Z" fill="white"/>
<path d="M104.572 133.645H94.2852V135.886V149.078V151.326H116.102V135.886H105.3L104.572 133.645Z" fill="white"/>
<path d="M104.572 167.29H94.2852V169.538V182.723V184.971H116.102V169.538H105.3L104.572 167.29Z" fill="white"/>
<path d="M170.518 32.7106H160.231V34.9517V48.1438V50.3919H182.056V34.9517H171.253L170.518 32.7106Z" fill="white"/>
<path d="M213.311 34.9517L212.575 32.7106H202.289V34.9517V48.1438V50.3919H224.106V34.9517H213.311Z" fill="white"/>
<path d="M170.518 66.3553H160.231V68.5964V81.7885V84.0367H182.056V68.5964H171.253L170.518 66.3553Z" fill="white"/>
<path d="M212.575 100H202.289V102.241V115.433V117.681H224.106V102.241H213.311L212.575 100Z" fill="white"/>
<path d="M212.575 66.3553H202.289V68.5964V81.7885V84.0367H224.106V68.5964H213.311L212.575 66.3553Z" fill="white"/>
<path d="M170.518 100H160.231V102.241V115.433V117.681H182.056V102.241H171.253L170.518 100Z" fill="white"/>
<path d="M170.518 133.645H160.231V135.886V149.078V151.326H182.056V135.886H171.253L170.518 133.645Z" fill="white"/>
<path d="M212.575 133.645H202.289V135.886V149.078V151.326H224.106V135.886H213.311L212.575 133.645Z" fill="white"/>
<path d="M170.518 167.29H160.231V169.538V182.723V184.971H182.056V169.538H171.253L170.518 167.29Z" fill="white"/>
<path d="M212.575 167.29H202.289V169.538V182.723V184.971H224.106V169.538H213.311L212.575 167.29Z" fill="white"/>
</g>
<path d="M106.113 247.439C125.83 247.439 141.815 244.115 141.815 240.016C141.815 235.916 125.83 232.593 106.113 232.593C86.395 232.593 70.4106 235.916 70.4106 240.016C70.4106 244.115 86.395 247.439 106.113 247.439Z" fill="#A47DE9"/>
<path opacity="0.5" d="M106.113 247.439C125.83 247.439 141.815 244.115 141.815 240.016C141.815 235.916 125.83 232.593 106.113 232.593C86.395 232.593 70.4106 235.916 70.4106 240.016C70.4106 244.115 86.395 247.439 106.113 247.439Z" fill="white"/>
<path d="M132.567 82.3894C132.567 82.3894 132.426 78.6071 132.426 74.6763C132.426 70.7456 134.462 69.876 135.77 69.876C136.405 69.8564 137.04 69.9038 137.664 70.0174C137.664 70.0174 138.371 63.7607 143.052 62.7427C147.732 61.7246 151.203 65.5069 152.801 64.199C154.398 62.8911 149.018 63.0325 151.344 61.1449C153.67 59.2573 160.372 59.1018 161.101 66.0937C161.829 73.0857 157.021 76.2812 154.695 76.8609C152.369 77.4406 149.16 73.22 146.106 73.3684C143.052 73.5169 143.49 77.0094 141.595 78.4657C139.701 79.9221 138.244 79.1727 138.244 81.0815C138.244 82.9903 137.375 83.9942 135.042 84.1356C132.709 84.277 132.567 82.3894 132.567 82.3894Z" fill="#312A40" stroke="#312A40" stroke-linecap="round" stroke-linejoin="round"/>
<path d="M154.137 71.1344C154.137 71.1344 156.406 72.1807 159.368 70.2648C162.331 68.3489 160.408 63.994 159.891 63.8173" stroke="white" stroke-linecap="round" stroke-linejoin="round"/>
<path d="M140.896 70.0881C140.896 70.0881 141.942 65.5564 145.597 65.7332C149.252 65.9099 148.736 69.2186 151.875 70.2649" stroke="white" stroke-linecap="round" stroke-linejoin="round"/>
<path d="M138.987 72.9301C138.987 72.9301 136.866 70.8092 134.985 71.3111C133.105 71.8131 133.939 75.1429 134.116 76.1892C134.292 77.2355 132.893 80.1977 132.893 80.1977" stroke="white" stroke-linecap="round" stroke-linejoin="round"/>
<path d="M89.8311 84.8708L95.0909 103.648L103.511 103.294L98.5975 84.3477L89.8311 84.8708Z" fill="#312A40" stroke="#312A40" stroke-linecap="round" stroke-linejoin="round"/>
<path d="M103.687 119.965L101.404 121.188C101.404 121.188 98.576 112.414 97.3742 109.085C96.1723 105.755 95.7906 104.348 95.7906 104.348H95.8471C96.4478 104.001 96.9211 103.47 97.1973 102.834C97.4735 102.197 97.538 101.489 97.3813 100.813L96.9783 99.0244C97.0395 99.1878 97.1381 99.3345 97.2663 99.4529C97.3944 99.5713 97.5485 99.658 97.7162 99.7061C97.8839 99.7542 98.0605 99.7624 98.2319 99.7299C98.4033 99.6975 98.5648 99.6254 98.7033 99.5193C99.2901 99.1375 98.6679 95.2775 97.961 93.8635C97.254 92.4496 94.9139 93.4888 94.214 93.8635C93.6987 94.1514 93.2233 94.5055 92.8001 94.9169L92.2769 92.796C92.2769 92.796 94.9069 92.6193 95.4371 92.6193C95.9673 92.6193 97.8903 90.866 97.0136 90.6892C96.137 90.5125 91.2235 90.5125 89.9934 91.5659C88.7633 92.6193 90.8701 96.8328 91.2235 97.7095C91.577 98.5861 93.3445 107.536 94.0514 109.99C94.7584 112.443 96.5117 130.492 97.5863 132.097C98.6609 133.701 106.466 126.278 106.466 126.278L103.687 119.965Z" fill="white" stroke="#312A40" stroke-linecap="round" stroke-linejoin="round"/>
<path d="M93.4009 96.1824C93.4009 96.1824 95.8682 94.0614 98.0881 94.5846" stroke="#312A40" stroke-linecap="round" stroke-linejoin="round"/>
<path d="M94.1436 98.268C94.674 97.7266 95.3062 97.2955 96.0038 96.9995C96.7015 96.7034 97.4508 96.5483 98.2086 96.543" stroke="#312A40" stroke-linecap="round" stroke-linejoin="round"/>
<path d="M122.38 97.3842C122.38 97.3842 119.127 100.488 117.721 103.118C116.314 105.748 102.987 119.965 102.987 119.965L106.847 133.122L116.321 125.048C116.321 125.048 121.581 114.875 122.988 108.385C124.394 101.895 125.639 97.2641 122.38 97.3842Z" fill="#A47DE9" stroke="#312A40" stroke-linecap="round" stroke-linejoin="round"/>
<path d="M151.493 100.877C151.493 100.877 141.157 100 135.338 99.1305C129.52 98.2609 123.108 96.6561 122.38 97.3842C121.651 98.1124 117.084 120.976 112.63 130.131C106.734 142.256 102.676 148.682 102.676 148.682C106.765 147.111 111.208 146.703 115.515 147.501C122.79 148.809 134.115 156.544 134.115 156.544C134.115 156.544 139.559 144.829 145.377 133.044C151.196 121.259 154.257 103.641 154.257 102.644C154.257 101.647 152.362 100.728 151.493 100.877Z" fill="#A47DE9" stroke="#312A40" stroke-linecap="round" stroke-linejoin="round"/>
<path d="M147.067 100.474C143.532 100.141 138.697 99.6325 135.339 99.1305C134.844 99.0598 134.356 98.975 133.861 98.8972C133.164 100.848 132.729 102.883 132.567 104.949C132.277 109.191 134.752 113.828 136.646 113.828C138.541 113.828 144.36 105.974 145.667 103.789C146.315 102.77 146.788 101.649 147.067 100.474Z" fill="white" stroke="#312A40" stroke-linecap="round" stroke-linejoin="round"/>
<path d="M137.516 90.9791C137.516 90.9791 136.067 98.4023 134.9 101.456C133.734 104.511 135.042 109.898 136.498 110.046C137.954 110.195 143.78 102.623 143.78 102.623L145.816 94.1817C145.816 94.1817 138.393 92.1456 137.516 90.9791Z" fill="white" stroke="#312A40" stroke-linecap="round" stroke-linejoin="round"/>
<path d="M152.815 101.188C153.591 101.31 154.328 101.611 154.967 102.067C155.607 102.524 156.131 103.123 156.498 103.818C157.912 106.278 171.938 129.608 171.938 129.608L162.458 132.068L149.301 120.311C149.301 120.311 146.148 116.275 149.655 109.085" fill="#A47DE9"/>
<path d="M152.815 101.188C153.591 101.31 154.328 101.611 154.967 102.067C155.607 102.524 156.131 103.123 156.498 103.818C157.912 106.278 171.938 129.608 171.938 129.608L162.458 132.068L149.301 120.311C149.301 120.311 146.148 116.275 149.655 109.085" stroke="#312A40" stroke-linecap="round" stroke-linejoin="round"/>
<path d="M125.441 123.295C125.441 123.295 122.111 126.278 121.906 126.978C121.701 127.678 123.659 130.513 124.19 130.661C124.72 130.81 124.897 129.248 124.713 128.541C124.529 127.834 124.19 126.78 124.19 126.78L126.113 124.504C126.113 124.504 126.848 123.648 125.441 123.295Z" fill="white" stroke="#312A40" stroke-linecap="round" stroke-linejoin="round"/>
<path d="M168.248 123.995C166.125 123.213 163.87 122.855 161.61 122.941C157.926 123.118 150.206 125.062 145.293 125.225C140.379 125.387 140.556 125.578 137.926 124.871C135.296 124.164 129.86 119.965 128.629 119.965C127.399 119.965 123.716 126.101 124.246 126.801C124.776 127.501 129.153 130.838 130.383 131.043C131.613 131.248 134.243 129.629 134.243 129.629C134.243 129.629 147.399 131.559 153.543 132.266C159.687 132.973 167.23 133.843 170.206 131.913C173.183 129.983 172.285 125.748 168.248 123.995Z" fill="white" stroke="#312A40" stroke-linecap="round" stroke-linejoin="round"/>
<path d="M128.601 122.065L125.264 127.331" stroke="#312A40" stroke-linecap="round" stroke-linejoin="round"/>
<path d="M131.054 123.995L127.194 129.262" stroke="#312A40" stroke-linecap="round" stroke-linejoin="round"/>
<path d="M132.814 126.278L129.478 130.315" stroke="#312A40" stroke-linecap="round" stroke-linejoin="round"/>
<path d="M134.215 129.608L133.861 128.385L132.108 129.438" stroke="#312A40" stroke-linecap="round" stroke-linejoin="round"/>
<path d="M154.985 81.8096C154.985 81.8096 156.442 80.7916 156.731 83.5558C157.021 86.3201 156.024 88.2148 155.275 88.6531C154.526 89.0914 153.677 88.3562 153.677 88.3562L154.985 81.8096Z" fill="white" stroke="#312A40" stroke-linecap="round" stroke-linejoin="round"/>
<path d="M134.038 82.248C134.038 82.248 131.712 79.1868 130.404 81.8097C129.096 84.4325 130.107 87.7765 131.86 89.0844C133.614 90.3923 135.353 88.5047 135.353 88.5047C135.353 88.5047 139.135 96.2178 142.338 96.5076C145.54 96.7975 151.528 94.4715 153.692 89.9611C155.855 85.4506 155.579 78.1688 155.869 75.4045C156.159 72.6403 153.105 69.1478 147.428 69.1478C145.828 69.1089 144.239 69.4284 142.779 70.0829C141.318 70.7373 140.023 71.7101 138.987 72.9301C139.202 73.0421 139.389 73.2022 139.533 73.398C139.677 73.5938 139.774 73.82 139.816 74.0592C139.858 74.2984 139.845 74.5442 139.777 74.7775C139.71 75.0107 139.589 75.2253 139.425 75.4045C138.259 77.0093 136.809 78.0274 136.371 79.0454C135.933 80.0635 136.371 81.0815 135.784 81.9581C135.197 82.8348 134.038 82.248 134.038 82.248Z" fill="white" stroke="#312A40" stroke-linecap="round" stroke-linejoin="round"/>
<path d="M147.223 77.6032C147.095 78.4162 146.685 79.0171 146.311 78.9747C145.936 78.9323 145.724 78.2041 145.851 77.3911C145.978 76.5781 146.388 75.9772 146.763 76.0196C147.138 76.062 147.35 76.7831 147.223 77.6032Z" fill="#312A40"/>
<path d="M153.041 79.1798C152.914 79.9998 152.504 80.5937 152.129 80.5513C151.754 80.5089 151.542 79.7877 151.669 78.9677C151.797 78.1476 152.207 77.5537 152.581 77.5961C152.956 77.6385 153.168 78.3879 153.041 79.1798Z" fill="#312A40"/>
<path d="M144.345 74.1886C144.345 74.1886 146.162 72.0677 148.509 73.2271" stroke="#312A40" stroke-linecap="round" stroke-linejoin="round"/>
<path d="M152.037 74.9379C152.037 74.9379 154.702 73.9764 155.24 77.6102" stroke="#312A40" stroke-linecap="round" stroke-linejoin="round"/>
<path d="M150.863 77.7092C150.863 77.7092 149.902 79.5261 150.114 80.0564C150.326 80.5866 152.999 81.23 152.143 81.9793C151.288 82.7287 149.153 83.5842 148.509 83.1529" stroke="#312A40" stroke-linecap="round" stroke-linejoin="round"/>
<path d="M142.854 83.4711C142.854 83.4711 143.603 86.0374 147.018 86.5676" stroke="#312A40" stroke-linecap="round" stroke-linejoin="round"/>
<path d="M103.935 147.501C103.935 147.501 100.032 151.397 94.4261 157.251C88.8198 163.104 74.433 182.85 75.8964 189.467C77.3598 196.085 113.444 206.046 113.444 206.046L117.339 203.366C117.339 203.366 95.6421 187.276 94.1787 183.614C92.7152 179.951 111.492 168.011 111.492 168.011L132.461 154.578C132.461 154.578 123.073 138.721 103.935 147.501Z" fill="#312A40" stroke="#312A40" stroke-linecap="round" stroke-linejoin="round"/>
<path d="M130.262 137.745C130.262 137.745 134.893 145.522 134.405 154.812C133.917 164.101 130.262 172.366 121.241 172.125C112.22 171.885 112.956 158.226 115.883 151.397C118.809 144.568 119.29 135.554 130.262 137.745Z" fill="#312A40" stroke="#312A40" stroke-linecap="round" stroke-linejoin="round"/>
<path d="M117.07 142.376C117.07 142.376 111.952 166.024 109.513 170.655C107.074 175.285 102.684 186.498 102.684 186.498L108.05 187.961C108.05 187.961 115.607 177.477 124.628 166.505C133.649 155.533 132.186 140.905 130.234 137.738C128.283 134.571 120.754 134.818 117.07 142.376Z" fill="#312A40" stroke="#312A40" stroke-linecap="round" stroke-linejoin="round"/>
<path d="M131.606 147.049C131.606 147.049 127.583 163.868 122.097 170.817" stroke="white" stroke-linecap="round" stroke-linejoin="round"/>
<path d="M113.443 206.01C113.443 206.01 114.15 209.913 112.736 212.592C111.323 215.272 107.858 220.885 110.297 221.125C112.736 221.366 116.151 217.711 118.59 214.763C121.029 211.815 121.27 209.149 122.981 206.986C124.691 204.823 117.367 203.331 117.367 203.331L114.172 205.021L113.443 206.01Z" fill="#A47DE9" stroke="#312A40" stroke-linecap="round" stroke-linejoin="round"/>
<path d="M122.952 206.986C123.532 206.237 123.058 205.572 122.182 205.021C120.486 208.722 118.416 212.24 116.003 215.519C113.451 218.835 111.096 219.761 109.435 219.867C109.386 220.574 109.598 221.062 110.269 221.125C112.708 221.373 116.123 217.711 118.562 214.763C121.001 211.815 121.242 209.178 122.952 206.986Z" fill="white" stroke="#312A40" stroke-linecap="round" stroke-linejoin="round"/>
<path d="M102.712 186.505C99.7001 186.11 96.7984 185.115 94.1785 183.578C90.2831 181.146 89.5479 181.146 89.5479 185.529C89.5479 189.913 94.9138 192.111 97.8406 194.31C100.767 196.509 102.471 197.725 104.663 197.477C106.855 197.23 108.078 187.969 108.078 187.969C108.078 187.969 106.862 185.529 102.712 186.505Z" fill="#A47DE9" stroke="#312A40" stroke-linecap="round" stroke-linejoin="round"/>
<path d="M89.5479 185.529C89.5479 189.92 94.9138 192.111 97.8406 194.31C100.767 196.509 102.443 197.696 104.606 197.477C99.4949 194.225 98.9506 188.994 94.1785 183.578C90.2831 181.146 89.5479 181.146 89.5479 185.529Z" fill="white" stroke="#312A40" stroke-linecap="round" stroke-linejoin="round"/>
<path d="M101.375 191.871C100.118 189.476 98.6708 187.185 97.0488 185.02C96.0517 184.636 95.0911 184.163 94.1785 183.606C90.2831 181.174 89.5479 181.174 89.5479 185.558C89.5479 189.941 94.9138 192.14 97.8406 194.338C100.767 196.537 102.471 197.753 104.663 197.506C105.2 197.449 105.674 196.848 106.077 195.978C105.032 195.697 104.066 195.181 103.251 194.469C102.436 193.757 101.795 192.868 101.375 191.871Z" stroke="#312A40" stroke-linecap="round" stroke-linejoin="round"/>
<path d="M28.6357 109.332C28.6357 108.979 28.6994 108.625 28.7347 108.279" stroke="#312A40" stroke-miterlimit="10"/>
<path d="M28.9751 106.179C32.0969 81.2416 44.1984 58.2962 63.0151 41.6362C81.8317 24.9763 106.074 15.7435 131.206 15.6655C156.338 15.5875 180.637 24.6697 199.557 41.2125C218.477 57.7553 230.72 80.6252 233.997 105.543" stroke="#DFE4E7" stroke-miterlimit="10" stroke-dasharray="2.98 2.98"/>
<path d="M234.145 106.596C234.187 106.942 234.23 107.303 234.265 107.649" stroke="#312A40" stroke-miterlimit="10"/>
<path d="M42.6194 37.6664L33.4712 66.1927L69.7035 71.6788L75.9248 45.3441C75.9248 45.3441 53.9522 43.8807 42.6194 37.6664Z" fill="white" stroke="#312A40" stroke-linecap="round" stroke-linejoin="round"/>
<path d="M80.3081 19.3771C80.3081 19.3771 97.4946 21.2081 109.93 12.7952C109.93 12.7952 125.286 24.8632 131.139 25.966C131.139 25.966 121.998 35.8636 112.489 38.7622C112.468 38.7622 89.0604 28.1577 80.3081 19.3771Z" fill="white" stroke="#312A40" stroke-linecap="round" stroke-linejoin="round"/>
<path d="M80.3081 19.3771C82.8312 17.4626 85.7177 16.0819 88.7918 15.3191C89.1056 20.5598 91.178 25.5415 94.6738 29.4585C94.6738 29.4585 84.048 23.725 80.3081 19.3771Z" fill="#312A40" stroke="#312A40" stroke-linecap="round" stroke-linejoin="round"/>
<path d="M148.178 31.3886C148.178 31.3886 147.57 33.2196 151.225 36.2667C152.886 37.6806 156.633 38.2038 156.633 38.2038L166.46 25.9025C166.46 25.9025 150.334 28.0941 148.178 31.3886Z" fill="#312A40" stroke="#312A40" stroke-linecap="round" stroke-linejoin="round"/>
<path d="M148.177 31.3885C153.582 29.5246 159.281 28.6575 164.996 28.8292C167.721 28.9619 170.39 29.6463 172.842 30.8408C175.294 32.0354 177.479 33.7153 179.263 35.7788L189.867 22.6079C189.867 22.6079 180.698 14.202 170.447 14.5625C160.196 14.9231 148.884 28.4616 148.177 31.3885Z" fill="white" stroke="#312A40" stroke-linecap="round" stroke-linejoin="round"/>
<path d="M209.79 38.4229C209.79 38.4229 203.208 55.7366 188.828 58.1756C188.828 58.1756 203.208 75.2419 211.253 77.1932C211.253 77.1932 227.591 69.876 231.982 62.0781C231.982 62.0781 217.595 53.7853 209.79 38.4229Z" fill="white" stroke="#312A40" stroke-linecap="round" stroke-linejoin="round"/>
<path d="M52.8565 126.61L59.2475 99.5264H16.3485L15.4365 126.61H52.8565Z" fill="#312A40" stroke="#312A40" stroke-linecap="round" stroke-linejoin="round"/>
<path d="M21.1631 89.4945L21.0288 120.601L53.1253 123.86L55.5431 90.7883L21.1631 89.4945Z" fill="white" stroke="#312A40" stroke-linecap="round" stroke-linejoin="round"/>
<path d="M10.5654 94.6624L15.4365 126.61H52.8565L50.4245 97.7024H30.3465L28.5154 94.0544L10.5654 94.6624Z" fill="#A47DE9" stroke="#312A40" stroke-linecap="round" stroke-linejoin="round"/>
<path d="M214.003 126.61L207.612 99.5264H250.511L251.423 126.61H214.003Z" fill="#312A40" stroke="#312A40" stroke-linecap="round" stroke-linejoin="round"/>
<path d="M245.697 89.4945L245.831 120.601L213.735 123.86L211.317 90.7883L245.697 89.4945Z" fill="white" stroke="#312A40" stroke-linecap="round" stroke-linejoin="round"/>
<path d="M256.294 94.6624L251.423 126.61H214.003L216.435 97.7024H236.52L238.344 94.0544L256.294 94.6624Z" fill="#A47DE9" stroke="#312A40" stroke-linecap="round" stroke-linejoin="round"/>
</svg>
