<svg width="61" height="61" viewBox="0 0 61 61" fill="none" xmlns="http://www.w3.org/2000/svg">
<g filter="url(#filter0_dd_13_2116)">
<path d="M2 17C2 11.3995 2 8.59921 3.08993 6.46009C4.04867 4.57847 5.57847 3.04867 7.46009 2.08993C9.59921 1 12.3995 1 18 1H43C48.6005 1 51.4008 1 53.5399 2.08993C55.4215 3.04867 56.9513 4.57847 57.9101 6.46009C59 8.59921 59 11.3995 59 17V42C59 47.6005 59 50.4008 57.9101 52.5399C56.9513 54.4215 55.4215 55.9513 53.5399 56.9101C51.4008 58 48.6005 58 43 58H18C12.3995 58 9.59921 58 7.46009 56.9101C5.57847 55.9513 4.04867 54.4215 3.08993 52.5399C2 50.4008 2 47.6005 2 42V17Z" fill="#4F378B"/>
<path d="M2 17C2 11.3995 2 8.59921 3.08993 6.46009C4.04867 4.57847 5.57847 3.04867 7.46009 2.08993C9.59921 1 12.3995 1 18 1H43C48.6005 1 51.4008 1 53.5399 2.08993C55.4215 3.04867 56.9513 4.57847 57.9101 6.46009C59 8.59921 59 11.3995 59 17V42C59 47.6005 59 50.4008 57.9101 52.5399C56.9513 54.4215 55.4215 55.9513 53.5399 56.9101C51.4008 58 48.6005 58 43 58H18C12.3995 58 9.59921 58 7.46009 56.9101C5.57847 55.9513 4.04867 54.4215 3.08993 52.5399C2 50.4008 2 47.6005 2 42V17Z" fill="url(#paint0_linear_13_2116)" fill-opacity="0.12"/>
<path d="M2.5 17C2.5 14.1915 2.50039 12.1152 2.63458 10.4727C2.7683 8.83613 3.03237 7.67441 3.53544 6.68709C4.44624 4.89955 5.89955 3.44624 7.68709 2.53544C8.67441 2.03237 9.83613 1.7683 11.4727 1.63458C13.1152 1.50039 15.1915 1.5 18 1.5H43C45.8085 1.5 47.8848 1.50039 49.5273 1.63458C51.1639 1.7683 52.3256 2.03237 53.3129 2.53544C55.1004 3.44624 56.5538 4.89955 57.4646 6.68709C57.9676 7.67442 58.2317 8.83613 58.3654 10.4727C58.4996 12.1152 58.5 14.1915 58.5 17V42C58.5 44.8085 58.4996 46.8848 58.3654 48.5273C58.2317 50.1639 57.9676 51.3256 57.4646 52.3129C56.5538 54.1004 55.1004 55.5538 53.3129 56.4646C52.3256 56.9676 51.1639 57.2317 49.5273 57.3654C47.8848 57.4996 45.8085 57.5 43 57.5H18C15.1915 57.5 13.1152 57.4996 11.4727 57.3654C9.83613 57.2317 8.67442 56.9676 7.68709 56.4646C5.89955 55.5538 4.44624 54.1004 3.53544 52.3129C3.03237 51.3256 2.7683 50.1639 2.63458 48.5273C2.50039 46.8848 2.5 44.8085 2.5 42V17Z" stroke="url(#paint1_linear_13_2116)" stroke-opacity="0.12"/>
</g>
<path d="M32.3881 27.6119C36.3959 31.6197 36.3959 38.1034 32.3881 42.0934C28.3803 46.0834 21.8965 46.1012 17.9065 42.0934C13.9165 38.0856 13.8987 31.6019 17.9065 27.6119" stroke="white" stroke-width="2.41981" stroke-linecap="round" stroke-linejoin="round"/>
<path d="M35.7903 13.7716C38.4443 13.825 41.0806 14.8759 43.0934 16.9066C47.2615 21.0747 47.2615 27.8434 43.0934 32.0294" stroke="white" stroke-width="2.41981" stroke-linecap="round" stroke-linejoin="round"/>
<path d="M27.9884 32.0116C23.8203 27.8434 23.8203 21.0747 27.9884 16.8887" stroke="white" stroke-width="2.41981" stroke-linecap="round" stroke-linejoin="round"/>
<defs>
<filter id="filter0_dd_13_2116" x="0" y="0" width="61" height="61" filterUnits="userSpaceOnUse" color-interpolation-filters="sRGB">
<feFlood flood-opacity="0" result="BackgroundImageFix"/>
<feColorMatrix in="SourceAlpha" type="matrix" values="0 0 0 0 0 0 0 0 0 0 0 0 0 0 0 0 0 0 127 0" result="hardAlpha"/>
<feMorphology radius="1" operator="dilate" in="SourceAlpha" result="effect1_dropShadow_13_2116"/>
<feOffset/>
<feComposite in2="hardAlpha" operator="out"/>
<feColorMatrix type="matrix" values="0 0 0 0 0.595042 0 0 0 0 0.459497 0 0 0 0 0.829167 0 0 0 1 0"/>
<feBlend mode="normal" in2="BackgroundImageFix" result="effect1_dropShadow_13_2116"/>
<feColorMatrix in="SourceAlpha" type="matrix" values="0 0 0 0 0 0 0 0 0 0 0 0 0 0 0 0 0 0 127 0" result="hardAlpha"/>
<feOffset dy="1"/>
<feGaussianBlur stdDeviation="1"/>
<feComposite in2="hardAlpha" operator="out"/>
<feColorMatrix type="matrix" values="0 0 0 0 0.306854 0 0 0 0 0.159792 0 0 0 0 0.65 0 0 0 0.48 0"/>
<feBlend mode="normal" in2="effect1_dropShadow_13_2116" result="effect2_dropShadow_13_2116"/>
<feBlend mode="normal" in="SourceGraphic" in2="effect2_dropShadow_13_2116" result="shape"/>
</filter>
<linearGradient id="paint0_linear_13_2116" x1="30.5" y1="1" x2="30.5" y2="58" gradientUnits="userSpaceOnUse">
<stop stop-color="white"/>
<stop offset="1" stop-color="white" stop-opacity="0"/>
</linearGradient>
<linearGradient id="paint1_linear_13_2116" x1="30.5" y1="1" x2="30.5" y2="58" gradientUnits="userSpaceOnUse">
<stop stop-color="white"/>
<stop offset="1" stop-color="white" stop-opacity="0"/>
</linearGradient>
</defs>
</svg>
