<svg width="42" height="41" viewBox="0 0 42 41" fill="none" xmlns="http://www.w3.org/2000/svg">
<g filter="url(#filter0_dd_125_4936)">
<path d="M2 20C2 9.50659 10.5066 1 21 1V1C31.4934 1 40 9.50659 40 20V20C40 30.4934 31.4934 39 21 39V39C10.5066 39 2 30.4934 2 20V20Z" fill="#4F378B"/>
<path d="M2 20C2 9.50659 10.5066 1 21 1V1C31.4934 1 40 9.50659 40 20V20C40 30.4934 31.4934 39 21 39V39C10.5066 39 2 30.4934 2 20V20Z" fill="url(#paint0_linear_125_4936)" fill-opacity="0.12"/>
<path d="M21 38.6667C10.6907 38.6667 2.33333 30.3093 2.33333 20C2.33333 9.69069 10.6907 1.33333 21 1.33333C31.3093 1.33333 39.6667 9.69069 39.6667 20C39.6667 30.3093 31.3093 38.6667 21 38.6667Z" stroke="url(#paint1_linear_125_4936)" stroke-opacity="0.12" stroke-width="0.666667"/>
</g>
<path d="M22.2588 18.7412C24.9307 21.4131 24.9307 25.7356 22.2588 28.3956C19.5869 31.0556 15.2644 31.0675 12.6044 28.3956C9.94444 25.7237 9.93256 21.4012 12.6044 18.7412" stroke="white" stroke-width="1.61321" stroke-linecap="round" stroke-linejoin="round"/>
<path d="M24.5269 9.5144C26.2962 9.55003 28.0537 10.2507 29.3956 11.6044C32.1744 14.3832 32.1744 18.8957 29.3956 21.6863" stroke="white" stroke-width="1.61321" stroke-linecap="round" stroke-linejoin="round"/>
<path d="M19.3256 21.6744C16.5469 18.8957 16.5469 14.3832 19.3256 11.5925" stroke="white" stroke-width="1.61321" stroke-linecap="round" stroke-linejoin="round"/>
<defs>
<filter id="filter0_dd_125_4936" x="0.666667" y="0.333333" width="40.6667" height="40.6667" filterUnits="userSpaceOnUse" color-interpolation-filters="sRGB">
<feFlood flood-opacity="0" result="BackgroundImageFix"/>
<feColorMatrix in="SourceAlpha" type="matrix" values="0 0 0 0 0 0 0 0 0 0 0 0 0 0 0 0 0 0 127 0" result="hardAlpha"/>
<feMorphology radius="0.666667" operator="dilate" in="SourceAlpha" result="effect1_dropShadow_125_4936"/>
<feOffset/>
<feComposite in2="hardAlpha" operator="out"/>
<feColorMatrix type="matrix" values="0 0 0 0 0.595042 0 0 0 0 0.459497 0 0 0 0 0.829167 0 0 0 1 0"/>
<feBlend mode="normal" in2="BackgroundImageFix" result="effect1_dropShadow_125_4936"/>
<feColorMatrix in="SourceAlpha" type="matrix" values="0 0 0 0 0 0 0 0 0 0 0 0 0 0 0 0 0 0 127 0" result="hardAlpha"/>
<feOffset dy="0.666667"/>
<feGaussianBlur stdDeviation="0.666667"/>
<feComposite in2="hardAlpha" operator="out"/>
<feColorMatrix type="matrix" values="0 0 0 0 0.306854 0 0 0 0 0.159792 0 0 0 0 0.65 0 0 0 0.48 0"/>
<feBlend mode="normal" in2="effect1_dropShadow_125_4936" result="effect2_dropShadow_125_4936"/>
<feBlend mode="normal" in="SourceGraphic" in2="effect2_dropShadow_125_4936" result="shape"/>
</filter>
<linearGradient id="paint0_linear_125_4936" x1="21" y1="1" x2="21" y2="39" gradientUnits="userSpaceOnUse">
<stop stop-color="white"/>
<stop offset="1" stop-color="white" stop-opacity="0"/>
</linearGradient>
<linearGradient id="paint1_linear_125_4936" x1="21" y1="1" x2="21" y2="39" gradientUnits="userSpaceOnUse">
<stop stop-color="white"/>
<stop offset="1" stop-color="white" stop-opacity="0"/>
</linearGradient>
</defs>
</svg>
