<svg width="240" height="233" viewBox="0 0 240 233" fill="none" xmlns="http://www.w3.org/2000/svg">
<path d="M232.649 149.5C225.051 169.838 209.536 191.852 187.702 198.372C154.69 208.224 150.77 234.813 91.6797 232.348C83.0481 232.03 74.4766 230.775 66.1165 228.603C62.0355 227.525 58.0266 226.189 54.1138 224.606C19.5911 210.622 1.58438 179.849 0.0937114 147.653C-1.87666 105.3 27.6685 85.117 46.8719 73.2999C66.0752 61.4829 89.2193 15.7053 147.325 17.6499C156.198 17.9161 165.011 19.2038 173.589 21.4875C193.143 26.7796 213.017 38.509 224.571 55.5924C225.438 56.8819 226.267 58.1955 227.057 59.5331C242.521 85.7617 243.001 121.77 232.649 149.5Z" fill="#A47DE9"/>
<path opacity="0.7" d="M232.649 149.5C225.051 169.838 209.536 191.852 187.702 198.372C154.69 208.224 150.77 234.813 91.6797 232.348C83.0481 232.03 74.4766 230.775 66.1165 228.603C62.0355 227.525 58.0266 226.189 54.1138 224.606C19.5911 210.622 1.58438 179.849 0.0937114 147.653C-1.87666 105.3 27.6685 85.117 46.8719 73.2999C66.0752 61.4829 89.2193 15.7053 147.325 17.6499C156.198 17.9161 165.011 19.2038 173.589 21.4875C193.143 26.7796 213.017 38.509 224.571 55.5924C225.438 56.8819 226.267 58.1955 227.057 59.5331C242.521 85.7617 243.001 121.77 232.649 149.5Z" fill="white"/>
<path opacity="0.2" d="M222.405 163.375H200.741V172.143H222.405V163.375Z" fill="black"/>
<path opacity="0.2" d="M220.342 85.2305H198.678V93.9991H220.342V85.2305Z" fill="black"/>
<path opacity="0.2" d="M141.94 116.179H120.276V124.947H141.94V116.179Z" fill="black"/>
<path opacity="0.2" d="M152.256 64.9645H130.592V73.7332H152.256V64.9645Z" fill="black"/>
<path opacity="0.2" d="M197.131 55.1643H175.467V63.933H197.131V55.1643Z" fill="black"/>
<path opacity="0.2" d="M43.4212 160.388H21.7574V169.157H43.4212V160.388Z" fill="black"/>
<path opacity="0.2" d="M93.454 191.852H71.7903V200.621H93.454V191.852Z" fill="black"/>
<path opacity="0.1" d="M208.478 97.3518H186.814V106.12H208.478V97.3518Z" fill="black"/>
<path opacity="0.1" d="M185.783 146.095H164.119V154.864H185.783V146.095Z" fill="black"/>
<path opacity="0.1" d="M30.526 146.611H8.8623V155.38H30.526V146.611Z" fill="black"/>
<path opacity="0.1" d="M138.845 160.022H117.181V168.791H138.845V160.022Z" fill="black"/>
<path opacity="0.1" d="M140.908 147.643H119.244V156.411H140.908V147.643Z" fill="black"/>
<path opacity="0.1" d="M233.237 97.3518H211.573V106.12H233.237V97.3518Z" fill="black"/>
<path opacity="0.2" d="M168.761 190.97H147.098V199.739H168.761V190.97Z" fill="black"/>
<path opacity="0.1" d="M156.898 203.091H135.234V211.86H156.898V203.091Z" fill="black"/>
<path opacity="0.1" d="M181.656 203.091H159.993V211.86H181.656V203.091Z" fill="black"/>
<path opacity="0.2" d="M63.7387 81.8313H42.075V90.6H63.7387V81.8313Z" fill="black"/>
<path opacity="0.1" d="M51.8752 93.9527H30.2114V102.721H51.8752V93.9527Z" fill="black"/>
<path opacity="0.1" d="M76.6337 93.9527H54.97V102.721H76.6337V93.9527Z" fill="black"/>
<path opacity="0.2" d="M55.2846 147.127H33.6208V155.895H55.2846V147.127Z" fill="black"/>
<path opacity="0.1" d="M151.224 105.197H129.56V113.966H151.224V105.197Z" fill="black"/>
<path opacity="0.1" d="M118.728 191.336H97.0647V200.105H118.728V191.336Z" fill="black"/>
<path opacity="0.1" d="M185.783 44.3324H164.119V53.1011H185.783V44.3324Z" fill="black"/>
<path opacity="0.2" d="M42.9053 118.092H21.2416V126.861H42.9053V118.092Z" fill="black"/>
<path opacity="0.1" d="M55.2846 107.26H33.6208V116.029H55.2846V107.26Z" fill="black"/>
<path opacity="0.1" d="M110.476 62.2772H88.8118V71.0459H110.476V62.2772Z" fill="black"/>
<path opacity="0.2" d="M185.783 116.437H164.119V125.205H185.783V116.437Z" fill="black"/>
<path opacity="0.2" d="M169.994 163.328H148.33V172.097H169.994V163.328Z" fill="black"/>
<path opacity="0.1" d="M63.0216 46.3956H41.3579V55.1643H63.0216V46.3956Z" fill="black"/>
<path opacity="0.1" d="M87.7802 46.3956H66.1165V55.1643H87.7802V46.3956Z" fill="black"/>
<path opacity="0.1" d="M183.204 174.831H161.54V183.599H183.204V174.831Z" fill="black"/>
<path opacity="0.1" d="M28.9787 73.7332H7.31494V82.5018H28.9787V73.7332Z" fill="black"/>
<path opacity="0.2" d="M196.816 163.586H175.152V172.355H196.816V163.586Z" fill="black"/>
<path opacity="0.1" d="M180.625 62.2772H158.961V71.0459H180.625V62.2772Z" fill="black"/>
<path opacity="0.1" d="M133.171 46.3956H111.507V55.1643H133.171V46.3956Z" fill="black"/>
<path opacity="0.1" d="M157.929 46.3956H136.266V55.1643H157.929V46.3956Z" fill="black"/>
<path d="M24.9451 69.9111C26.8639 68.0233 30.3198 68.4308 30.3198 68.4308C30.3198 68.4308 30.6757 71.897 28.7724 73.7848C26.869 75.6727 23.3977 75.2652 23.3977 75.2652C23.3977 75.2652 23.0315 71.799 24.9451 69.9111Z" fill="#263238" stroke="#263238" stroke-miterlimit="10"/>
<path d="M27.3797 63.6751C29.7317 64.9749 30.3197 68.4101 30.3197 68.4101C30.3197 68.4101 27.1011 69.7306 24.7491 68.4101C22.397 67.0897 21.8038 63.6751 21.8038 63.6751C21.8038 63.6751 25.0276 62.3907 27.3797 63.6751Z" fill="#263238" stroke="#263238" stroke-miterlimit="10"/>
<path d="M34.1212 4.74457V73.2845" stroke="#263238" stroke-miterlimit="10"/>
<path d="M35.0032 65.3978C33.7446 67.7757 30.3197 68.4307 30.3197 68.4307C30.3197 68.4307 28.9425 65.2328 30.2011 62.8549C31.4596 60.4771 34.8794 59.8271 34.8794 59.8271C34.8794 59.8271 36.2618 63.0251 35.0032 65.3978Z" fill="#263238" stroke="#263238" stroke-miterlimit="10"/>
<path d="M31.8207 73.8003C29.9277 71.8918 30.3198 68.4308 30.3198 68.4308C30.3198 68.4308 33.786 68.0645 35.679 69.9782C37.5719 71.8918 37.1748 75.3528 37.1748 75.3528C37.1748 75.3528 33.7137 75.7088 31.8207 73.8003Z" fill="#263238" stroke="#263238" stroke-miterlimit="10"/>
<path d="M36.5713 70.7106C39.1142 69.8389 42.0594 71.7061 42.0594 71.7061C42.0594 71.7061 40.8782 74.9815 38.3353 75.8325C35.7924 76.6836 32.8472 74.8422 32.8472 74.8422C32.8472 74.8422 34.0284 71.5823 36.5713 70.7106Z" fill="#263238" stroke="#263238" stroke-miterlimit="10"/>
<path d="M41.456 66.1612C43.0034 68.3534 42.0595 71.7061 42.0595 71.7061C42.0595 71.7061 38.583 71.4998 37.0252 69.3076C35.4675 67.1155 36.4269 63.7628 36.4269 63.7628C36.4269 63.7628 39.9034 63.9691 41.456 66.1612Z" fill="#263238" stroke="#263238" stroke-miterlimit="10"/>
<path d="M47.5889 70.9995C45.4276 72.5984 42.0594 71.7061 42.0594 71.7061C42.0594 71.7061 42.1987 68.2244 44.3599 66.6254C46.5211 65.0265 49.8945 65.924 49.8945 65.924C49.8945 65.924 49.7501 69.4056 47.5889 70.9995Z" fill="#263238" stroke="#263238" stroke-miterlimit="10"/>
<path d="M41.0794 77.1943C40.2025 74.6514 42.0594 71.7061 42.0594 71.7061C42.0594 71.7061 45.3399 72.877 46.2168 75.4147C47.0936 77.9525 45.2419 80.908 45.2419 80.908C45.2419 80.908 41.9614 79.7372 41.0794 77.1943Z" fill="#263238" stroke="#263238" stroke-miterlimit="10"/>
<path d="M19.1422 70.2979C21.4685 71.1696 22.4743 74.2284 22.4743 74.2284C22.4743 74.2284 19.6942 75.8738 17.3834 75.0227C15.0726 74.1716 14.0513 71.0923 14.0513 71.0923C14.0513 71.0923 16.816 69.4262 19.1422 70.2979Z" fill="#263238" stroke="#263238" stroke-miterlimit="10"/>
<path d="M25.301 69.9214C25.1256 72.4025 22.4744 74.2284 22.4744 74.2284C22.4744 74.2284 20.1172 72.0414 20.2925 69.5604C20.4679 67.0794 23.1191 65.2534 23.1191 65.2534C23.1191 65.2534 25.4815 67.4456 25.301 69.9214Z" fill="#263238" stroke="#263238" stroke-miterlimit="10"/>
<path d="M26.8329 76.9776C24.3519 76.8435 22.4744 74.2284 22.4744 74.2284C22.4744 74.2284 24.6201 71.8299 27.1166 71.9588C29.6131 72.0878 31.4751 74.708 31.4751 74.708C31.4751 74.708 29.3139 77.0859 26.8329 76.9776Z" fill="#263238" stroke="#263238" stroke-miterlimit="10"/>
<path d="M18.5543 77.5708C19.4208 75.2445 22.4744 74.2284 22.4744 74.2284C22.4744 74.2284 24.1301 76.9931 23.2636 79.3194C22.397 81.6456 19.3435 82.6618 19.3435 82.6618C19.3435 82.6618 17.6878 79.9022 18.5543 77.5708Z" fill="#263238" stroke="#263238" stroke-miterlimit="10"/>
<path d="M40.935 73.0369C43.4779 72.1652 46.4232 74.0324 46.4232 74.0324C46.4232 74.0324 45.242 77.3078 42.6991 78.1588C40.1562 79.0099 37.2316 77.1891 37.2316 77.1891C37.2316 77.1891 38.3921 73.9086 40.935 73.0369Z" fill="#A47DE9"/>
<path d="M45.8196 68.4875C47.367 70.6796 46.4231 74.0324 46.4231 74.0324C46.4231 74.0324 42.9414 73.826 41.3888 71.6339C39.8363 69.4417 40.7853 66.089 40.7853 66.089C40.7853 66.089 44.267 66.2953 45.8196 68.4875Z" fill="#A47DE9"/>
<path d="M51.9525 73.3257C49.7861 74.9247 46.4231 74.0323 46.4231 74.0323C46.4231 74.0323 46.5624 70.5507 48.7236 68.9517C50.8848 67.3527 54.253 68.2502 54.253 68.2502C54.253 68.2502 54.1137 71.7319 51.9525 73.3257Z" fill="#A47DE9"/>
<path d="M45.4431 79.5206C44.5663 76.9776 46.4232 74.0324 46.4232 74.0324C46.4232 74.0324 49.7037 75.2033 50.5805 77.7462C51.4574 80.2891 49.6108 83.2343 49.6108 83.2343C49.6108 83.2343 46.3251 82.0635 45.4431 79.5206Z" fill="#A47DE9"/>
<path d="M32.7904 92.56C33.4942 92.5846 34.181 92.7831 34.7894 93.1377C35.3978 93.4923 35.909 93.992 36.2773 94.5923C36.998 95.9371 37.397 97.4308 37.443 98.956C37.443 98.956 32.4964 98.3473 32.7904 92.56Z" fill="#263238" stroke="#263238" stroke-miterlimit="10"/>
<path d="M34.5339 104.46C35.2379 104.484 35.925 104.681 36.5342 105.035C37.1434 105.389 37.6558 105.887 38.0259 106.487C38.7436 107.832 39.1408 109.326 39.1865 110.85C39.1865 110.85 34.2451 110.273 34.5339 104.46Z" fill="#263238" stroke="#263238" stroke-miterlimit="10"/>
<path d="M38.3147 116.385C39.0192 116.41 39.7066 116.608 40.3158 116.963C40.9251 117.317 41.4372 117.817 41.8067 118.417C42.5244 119.763 42.9216 121.256 42.9672 122.781C42.9672 122.781 38.0258 122.198 38.3147 116.385Z" fill="#263238" stroke="#263238" stroke-miterlimit="10"/>
<path d="M32.3365 97.718C32.7624 98.279 33.0432 98.9364 33.1539 99.632C33.2646 100.328 33.2017 101.04 32.9709 101.705C32.385 103.115 31.4812 104.37 30.33 105.373C30.33 105.373 27.6478 101.184 32.3365 97.718Z" fill="#263238" stroke="#263238" stroke-miterlimit="10"/>
<path d="M35.9368 111.81C36.3632 112.372 36.6442 113.03 36.7549 113.726C36.8656 114.423 36.8025 115.136 36.5713 115.802C35.9844 117.21 35.0806 118.463 33.9303 119.464C33.9303 119.464 31.2482 115.255 35.9368 111.81Z" fill="#263238" stroke="#263238" stroke-miterlimit="10"/>
<path d="M32.2076 89.9139C32.2076 89.9139 31.9136 107.075 39.7693 119.315" stroke="#263238" stroke-miterlimit="10"/>
<path d="M49.2549 83.1621C48.6478 83.1833 48.0554 83.3546 47.5307 83.6606C47.0059 83.9667 46.5651 84.3979 46.2477 84.9158C45.6288 86.0754 45.2863 87.3623 45.2471 88.676C45.2471 88.676 49.5076 88.1757 49.2549 83.1621Z" fill="#263238" stroke="#263238" stroke-miterlimit="10"/>
<path d="M47.7539 93.4369C47.1468 93.4581 46.5545 93.6294 46.0297 93.9354C45.505 94.2414 45.0642 94.6727 44.7468 95.1906C44.1248 96.3492 43.7805 97.6364 43.741 98.9508C43.741 98.9508 48.0015 98.4505 47.7539 93.4369Z" fill="#263238" stroke="#263238" stroke-miterlimit="10"/>
<path d="M44.494 103.712C43.8869 103.733 43.2945 103.904 42.7698 104.21C42.2451 104.516 41.8043 104.947 41.4869 105.465C40.8679 106.625 40.5255 107.912 40.4862 109.226C40.4862 109.226 44.7467 108.725 44.494 103.712Z" fill="#263238" stroke="#263238" stroke-miterlimit="10"/>
<path d="M49.6469 87.6393C49.2793 88.1233 49.0371 88.6906 48.9417 89.2909C48.8463 89.8911 48.9007 90.5056 49.1001 91.0797C49.6048 92.2918 50.3834 93.3705 51.3748 94.2312C51.3748 94.2312 53.6856 90.6206 49.6469 87.6393Z" fill="#263238" stroke="#263238" stroke-miterlimit="10"/>
<path d="M46.5418 99.7812C46.1742 100.265 45.932 100.833 45.8366 101.433C45.7412 102.033 45.7956 102.648 45.995 103.222C46.5016 104.435 47.2819 105.516 48.2749 106.378C48.2749 106.378 50.5805 102.752 46.5418 99.7812Z" fill="#263238" stroke="#263238" stroke-miterlimit="10"/>
<path d="M49.7552 80.908C49.7552 80.908 50.0079 95.6961 43.2406 106.218" stroke="#263238" stroke-miterlimit="10"/>
<path d="M13.943 75.0795C14.7959 79.8135 17.2857 84.097 20.9771 87.1812C24.6685 90.2653 29.3265 91.9538 34.1367 91.9514C38.9442 91.9502 43.5986 90.2601 47.2867 87.1762C50.9749 84.0924 53.4625 79.8108 54.3149 75.0795H13.943Z" fill="white" stroke="#263238" stroke-miterlimit="10"/>
<path d="M43.2819 73.6249C42.9792 80.6307 42.1046 87.6 40.6668 94.4633C38.3353 105.218 38.6036 110.598 40.6668 118.665C42.73 126.732 40.9556 130.766 39.7899 135.134C38.6242 139.503 37.4636 143.202 37.4636 143.202" stroke="#263238" stroke-miterlimit="10"/>
<path d="M42.699 80.6965C42.699 80.6965 39.2122 83.3839 38.9182 86.0712C38.7527 87.7578 38.8519 89.4598 39.2122 91.1158C39.2122 91.1158 43.5707 89.7592 42.699 80.6965Z" fill="#A47DE9"/>
<path d="M39.8105 98.4969C39.8105 98.4969 36.3237 101.184 36.0296 103.877C35.8639 105.562 35.9631 107.262 36.3237 108.916C36.3237 108.916 40.6667 107.575 39.8105 98.4969Z" fill="#A47DE9"/>
<path d="M40.3728 119.335C40.3728 119.335 36.8808 122.028 36.5919 124.715C36.426 126.4 36.5235 128.1 36.8808 129.755C36.8808 129.755 41.2445 128.414 40.3728 119.335Z" fill="#A47DE9"/>
<path d="M38.6293 138.833C38.6293 138.833 35.1373 141.52 34.8485 144.207C34.6794 145.894 34.7769 147.596 35.1373 149.252C35.1373 149.252 39.501 147.906 38.6293 138.833Z" fill="#A47DE9"/>
<path d="M43.2818 79.34C44.0214 79.3825 44.7359 79.6233 45.3504 80.0371C45.9648 80.451 46.4565 81.0226 46.7738 81.692C47.497 83.2762 47.8918 84.9905 47.9344 86.7314C47.9344 86.7314 42.993 86.0609 43.2818 79.34Z" fill="#A47DE9"/>
<path d="M41.2445 94.1074C41.9841 94.1499 42.6986 94.3907 43.313 94.8046C43.9274 95.2184 44.4191 95.7901 44.7365 96.4595C45.4621 98.0449 45.8586 99.761 45.9022 101.504C45.9022 101.504 40.9556 100.849 41.2445 94.1074Z" fill="#A47DE9"/>
<path d="M39.8105 110.613C40.5501 110.656 41.2646 110.896 41.8791 111.31C42.4935 111.724 42.9852 112.296 43.3025 112.965C44.0281 114.551 44.4247 116.267 44.4682 118.01C44.4682 118.01 39.501 117.319 39.8105 110.613Z" fill="#A47DE9"/>
<path d="M41.5385 128.749C42.2772 128.792 42.9906 129.033 43.6041 129.447C44.2175 129.861 44.7084 130.432 45.0253 131.101C45.7509 132.686 46.1475 134.402 46.191 136.145C46.191 136.145 41.2445 135.47 41.5385 128.749Z" fill="#A47DE9"/>
<path d="M24.9966 74.8989C24.9966 74.8989 22.629 78.2774 22.629 83.8068C22.629 89.3362 27.8644 96.021 27.2713 103.005C26.6781 109.989 25.5227 112.289 25.5227 118.995C25.5227 125.7 26.3996 128.31 26.3996 128.31" stroke="#263238" stroke-miterlimit="10"/>
<path d="M22.0462 82.0582C22.0462 82.0582 18.5594 82.0582 17.6877 84.3897C17.1906 85.5935 16.8944 86.8708 16.8108 88.1705C16.8108 88.1705 19.4311 87.8765 20.3028 86.4219C21.0176 85.0244 21.6012 83.5636 22.0462 82.0582Z" fill="#A47DE9"/>
<path d="M24.0836 90.7856C24.0836 90.7856 20.5968 93.1119 20.3028 95.4279C20.1372 96.8883 20.2368 98.3666 20.5968 99.7916C20.5968 99.7916 24.9553 98.6413 24.0836 90.7856Z" fill="#A47DE9"/>
<path d="M25.2494 117.546C25.2494 117.546 21.7574 119.872 21.4685 122.188C21.2998 123.648 21.3977 125.126 21.7574 126.551C21.7574 126.551 26.1211 125.401 25.2494 117.546Z" fill="#A47DE9"/>
<path d="M26.704 105.037C26.704 105.037 23.212 107.364 22.9232 109.68C22.7548 111.14 22.8526 112.618 23.212 114.043C23.212 114.043 27.5757 112.893 26.704 105.037Z" fill="#A47DE9"/>
<path d="M22.6291 83.7914C23.3365 83.8194 24.0258 84.0225 24.6353 84.3826C25.2448 84.7427 25.7553 85.2485 26.1211 85.8546C26.8421 87.1975 27.2412 88.6896 27.2868 90.2131C27.2868 90.2131 22.3403 89.6251 22.6291 83.7914Z" fill="#A47DE9"/>
<path d="M26.1211 112.604C26.8255 112.629 27.513 112.827 28.1222 113.182C28.7315 113.536 29.2436 114.036 29.6131 114.636C30.3308 115.982 30.728 117.476 30.7736 119C30.7736 119 25.8322 118.417 26.1211 112.604Z" fill="#A47DE9"/>
<path d="M26.1211 128.599C26.826 128.624 27.5138 128.824 28.1231 129.179C28.7323 129.535 29.2442 130.035 29.6131 130.637C30.3308 131.982 30.728 133.476 30.7736 135C30.7736 135 25.8322 134.418 26.1211 128.599Z" fill="#A47DE9"/>
<path d="M26.9928 97.4756C27.6977 97.5009 28.3855 97.7001 28.9948 98.0556C29.604 98.4111 30.1159 98.9118 30.4848 99.5131C31.2025 100.859 31.5997 102.352 31.6453 103.877C31.6453 103.877 26.7039 103.294 26.9928 97.4756Z" fill="#A47DE9"/>
<path d="M22.8509 67.5952C24.6871 69.5553 24.1971 73.006 24.1971 73.006C24.1971 73.006 20.7258 73.2742 18.8843 71.3141C17.0429 69.3541 17.5381 65.9034 17.5381 65.9034C17.5381 65.9034 21.0095 65.6352 22.8509 67.5952Z" fill="#A47DE9"/>
<path d="M29.0045 70.1845C27.6428 72.5004 24.1972 73.0059 24.1972 73.0059C24.1972 73.0059 22.9593 69.7512 24.3158 67.4301C25.6724 65.109 29.1283 64.6086 29.1283 64.6086C29.1283 64.6086 30.3662 67.8634 29.0045 70.1845Z" fill="#A47DE9"/>
<path d="M27.1114 77.7616C24.7645 76.4412 24.1971 73.0059 24.1971 73.0059C24.1971 73.0059 27.4312 71.7061 29.773 73.0059C32.1147 74.3057 32.6873 77.7616 32.6873 77.7616C32.6873 77.7616 29.4532 79.0769 27.1114 77.7616Z" fill="#A47DE9"/>
<path d="M18.7915 74.3677C20.7464 72.5262 24.1971 73.0059 24.1971 73.0059C24.1971 73.0059 24.4757 76.4773 22.5208 78.3239C20.5659 80.1704 17.1151 79.665 17.1151 79.665C17.1151 79.665 16.8366 76.2142 18.7915 74.3677Z" fill="#A47DE9"/>
<path d="M32.4706 73.4753C34.3842 71.5874 37.8453 71.9949 37.8453 71.9949C37.8453 71.9949 38.2012 75.4611 36.2979 77.349C34.3946 79.2368 30.9232 78.8293 30.9232 78.8293C30.9232 78.8293 30.557 75.3838 32.4706 73.4753Z" fill="#A47DE9"/>
<path d="M34.9001 67.2857C37.2521 68.5855 37.8453 72.0207 37.8453 72.0207C37.8453 72.0207 34.6215 73.3412 32.2695 72.0207C29.9174 70.7003 29.3242 67.2857 29.3242 67.2857C29.3242 67.2857 32.548 65.9755 34.9001 67.2857Z" fill="#A47DE9"/>
<path d="M42.5236 68.9827C41.2651 71.3605 37.8453 72.0156 37.8453 72.0156C37.8453 72.0156 36.4629 68.8331 37.7473 66.4397C39.0316 64.0464 42.4256 63.412 42.4256 63.412C42.4256 63.412 43.7822 66.61 42.5236 68.9827Z" fill="#A47DE9"/>
<path d="M39.3411 77.3851C37.4481 75.4767 37.8452 72.0156 37.8452 72.0156C37.8452 72.0156 41.3063 71.6494 43.1993 73.563C45.0923 75.4766 44.7003 78.9377 44.7003 78.9377C44.7003 78.9377 41.2341 79.2936 39.3411 77.3851Z" fill="#A47DE9"/>
<path d="M13.943 75.0795L34.1212 4.74457L54.2994 75.0795" stroke="#263238" stroke-miterlimit="10"/>
<path d="M36.7931 1.26288H31.4493V8.22622H36.7931V1.26288Z" fill="white" stroke="#263238" stroke-miterlimit="10"/>
<path d="M100.263 84.7456C100.263 84.7456 91.1434 82.6824 84.5101 86.195C77.8769 89.7077 77.0516 94.6955 75.1844 101.535C73.3172 108.375 68.969 115.627 65.0282 121.651C61.0875 127.676 67.5144 136.367 77.4643 139.89C87.4141 143.413 104.616 142.985 112.286 138.441C119.956 133.897 117.444 126.005 115.603 119.789C113.761 113.574 112.699 109.839 112.699 107.766C112.699 105.692 116.645 104.326 113.942 95.954C111.873 89.5117 105.653 83.5026 100.263 84.7456Z" fill="#263238" stroke="#263238" stroke-linecap="round" stroke-linejoin="round"/>
<path d="M76.1903 111.722C74.4675 112.408 73.4153 112.707 73.4153 112.707" stroke="#828282" stroke-linecap="round" stroke-linejoin="round"/>
<path d="M98.4059 92.7509C98.4059 92.7509 95.9816 99.0952 88.3322 104.872C85.3225 107.143 82.0785 109.084 78.6558 110.665" stroke="#828282" stroke-linecap="round" stroke-linejoin="round"/>
<path d="M91.5354 91.1777C90.1066 93.0037 87.7907 95.9489 84.4173 100.215C78.0781 108.23 76.3966 109.721 73.5854 110.654" stroke="#828282" stroke-linecap="round" stroke-linejoin="round"/>
<path d="M93.3717 88.836L92.3813 90.0997" stroke="#828282" stroke-linecap="round" stroke-linejoin="round"/>
<path d="M100.83 86.5974C100.83 86.5974 107.732 92.1938 105.472 96.1088" stroke="#828282" stroke-linecap="round" stroke-linejoin="round"/>
<path d="M113.328 98.5073C113.666 99.6223 113.598 100.821 113.137 101.891" stroke="#828282" stroke-linecap="round" stroke-linejoin="round"/>
<path d="M104.745 90.1409C104.745 90.1409 110.295 92.9624 112.575 96.8051" stroke="#828282" stroke-linecap="round" stroke-linejoin="round"/>
<path d="M120.204 205.995C118.6 206.48 93.7172 217.395 86.1607 219.963C81.424 221.542 76.5204 222.567 71.548 223.017L75.2153 230.594C80.655 231.543 86.1519 232.129 91.6695 232.348C114.447 233.297 129.024 229.929 140.232 224.869C138.375 220.428 135.152 213.052 132.877 209.689C129.519 204.711 121.823 205.521 120.204 205.995Z" fill="#263238" stroke="#263238" stroke-linecap="round" stroke-linejoin="round"/>
<path d="M110.393 211.195C122.685 207.78 127.306 206.553 133.532 209.714C132.887 208.43 129.839 203.618 129.839 203.618C124.382 202.168 106.561 206.666 92.5928 212.283C78.6249 217.9 70.1141 213.408 70.1141 213.408C70.1141 213.408 69.9542 223.522 73.4875 224.327C73.4875 224.301 98.0965 214.584 110.393 211.195Z" fill="#A47DE9" stroke="#263238" stroke-linecap="round" stroke-linejoin="round"/>
<path d="M82.2509 131.338C82.2509 131.338 55.9862 139.694 55.0216 141.618C54.0571 143.542 45.0718 178.24 45.0718 178.24C45.0718 178.24 48.2801 182.413 50.0441 183.697C51.2324 184.492 52.6299 184.917 54.0596 184.917C55.4894 184.917 56.8869 184.492 58.0752 183.697C60.9585 181.753 64.8167 174.057 64.8167 174.057C64.8167 174.057 69.9748 212.742 70.114 213.392C70.2533 214.042 72.693 216.446 76.5358 217.57C80.3785 218.695 97.5702 212.412 107.04 209.699C116.511 206.986 124.382 206.006 127.91 205.366C131.438 204.727 132.552 203.277 131.928 200.389C131.304 197.5 131.283 191.398 131.283 191.398C131.283 191.398 138.025 196.696 139.149 193.807C140.274 190.919 134.507 179.679 131.928 168.76C129.349 157.84 128.395 143.717 123.577 141.309C118.759 138.9 99.979 133.603 99.979 133.603C99.979 133.603 86.924 130.425 82.7718 131.612" fill="#A47DE9"/>
<path d="M82.2509 131.338C82.2509 131.338 55.9862 139.694 55.0216 141.618C54.0571 143.542 45.0718 178.24 45.0718 178.24C45.0718 178.24 48.2801 182.413 50.0441 183.697C51.2324 184.492 52.6299 184.917 54.0596 184.917C55.4894 184.917 56.8869 184.492 58.0752 183.697C60.9585 181.753 64.8167 174.057 64.8167 174.057C64.8167 174.057 69.9748 212.742 70.114 213.392C70.2533 214.042 72.693 216.446 76.5358 217.57C80.3785 218.695 97.5702 212.412 107.04 209.699C116.511 206.986 124.382 206.006 127.91 205.366C131.438 204.727 132.552 203.277 131.928 200.389C131.304 197.5 131.283 191.398 131.283 191.398C131.283 191.398 138.025 196.696 139.149 193.807C140.274 190.919 134.507 179.679 131.928 168.76C129.349 157.84 128.395 143.717 123.577 141.309C118.759 138.9 99.979 133.603 99.979 133.603C99.979 133.603 86.924 130.425 82.7718 131.612" stroke="#263238" stroke-linecap="round" stroke-linejoin="round"/>
<path d="M114.721 157.34L116.996 180.468" stroke="#263238" stroke-linecap="round" stroke-linejoin="round"/>
<path d="M114.267 152.698L114.499 155.091" stroke="#263238" stroke-linecap="round" stroke-linejoin="round"/>
<path d="M95.4607 179.323C96.0951 179.731 96.745 180.118 97.4104 180.468" stroke="#263238" stroke-linecap="round" stroke-linejoin="round"/>
<path d="M85.5262 170.359C88.1222 173.467 91.0956 176.239 94.3774 178.611" stroke="#263238" stroke-linecap="round" stroke-linejoin="round"/>
<path d="M88.5798 176.455C91.2793 178.745 94.1795 180.788 97.2453 182.557" stroke="#263238" stroke-linecap="round" stroke-linejoin="round"/>
<path d="M112.75 205.655C114.587 205.769 116.237 205.836 117.475 205.836" stroke="#263238" stroke-linecap="round" stroke-linejoin="round"/>
<path d="M96.126 204.231C96.126 204.231 103.729 205.005 110.316 205.521" stroke="#263238" stroke-linecap="round" stroke-linejoin="round"/>
<path d="M84.7268 205.356C84.7268 205.356 95.3214 207.445 103.667 207.445" stroke="#263238" stroke-linecap="round" stroke-linejoin="round"/>
<path d="M83.4425 127.81C83.4425 127.81 80.4766 133.969 80.7087 136.641C80.9409 139.312 84.8868 143.707 90.8236 144.187C96.7605 144.666 101.583 140.813 102.223 139.029C102.862 137.244 103.832 131.642 103.832 131.642C103.832 131.642 96.4459 133.572 90.5039 130.198C84.5618 126.825 83.6024 126.345 83.6024 126.345L83.4425 127.81Z" fill="#A47DE9" stroke="#263238" stroke-linecap="round" stroke-linejoin="round"/>
<path d="M84.6752 142.057L86.661 135.79" stroke="#263238" stroke-linecap="round" stroke-linejoin="round"/>
<path d="M86.9653 134.871L87.4244 133.195" stroke="#263238" stroke-linecap="round" stroke-linejoin="round"/>
<path d="M90.1737 138.693L88.4922 143.738" stroke="#263238" stroke-linecap="round" stroke-linejoin="round"/>
<path d="M81.7712 139.153L83.298 134.417" stroke="#263238" stroke-linecap="round" stroke-linejoin="round"/>
<path d="M104.41 97.2023C104.41 97.2023 100.057 103.392 94.8778 105.909C91.4654 107.505 87.9291 108.821 84.3039 109.845C84.3039 109.845 84.0976 112.749 83.0608 113.161C82.024 113.574 80.7809 112.13 80.7809 112.13L77.6861 112.96C77.3888 113.415 77.2136 113.938 77.1774 114.48C77.1413 115.023 77.2454 115.565 77.4798 116.055C78.3103 117.716 80.7964 118.118 80.7964 118.118C80.7964 118.118 82.4573 126.201 84.3194 128.692C86.1814 131.183 92.8043 136.145 97.5807 135.526C102.357 134.907 110.213 126.603 110.419 123.508C110.625 120.413 111.043 113.976 111.249 110.66C111.456 107.343 112.08 105.455 110.625 103.392C109.171 101.329 104.41 97.2023 104.41 97.2023Z" fill="white" stroke="#263238" stroke-linecap="round" stroke-linejoin="round"/>
<path d="M90.3181 116.457C90.3181 116.457 92.3813 118.319 95.7031 117.076" stroke="#263238" stroke-linecap="round" stroke-linejoin="round"/>
<path d="M102.543 117.288C102.543 117.288 105.637 118.737 107.52 117.288" stroke="#263238" stroke-linecap="round" stroke-linejoin="round"/>
<path d="M90.5244 112.104C90.5244 112.104 94.46 110.861 97.7766 112.104" stroke="#263238" stroke-width="2" stroke-linecap="round" stroke-linejoin="round"/>
<path d="M102.543 112.517C102.543 112.517 107.314 111.691 108.763 113.141" stroke="#263238" stroke-width="2" stroke-linecap="round" stroke-linejoin="round"/>
<path d="M101.3 123.297C101.3 123.297 99.4375 124.54 97.5703 123.916" stroke="#263238" stroke-linecap="round" stroke-linejoin="round"/>
<path d="M93.8411 125.989C95.1262 126.895 96.6353 127.432 98.2041 127.54C99.7728 127.648 101.341 127.324 102.739 126.603" stroke="#263238" stroke-linecap="round" stroke-linejoin="round"/>
<path d="M137.865 191.388C135.456 187.535 128.555 186.746 126.001 187.695C123.448 188.644 120.544 187.535 120.544 187.535L112.513 196.365C112.513 196.365 121.184 200.218 125.357 202.787C129.529 205.356 132.743 205.196 136.596 201.183C140.449 197.17 139.175 193.152 139.175 193.152" fill="#A47DE9"/>
<path d="M137.865 191.388C135.456 187.535 128.555 186.746 126.001 187.695C123.448 188.644 120.544 187.535 120.544 187.535L112.513 196.365C112.513 196.365 121.184 200.218 125.357 202.787C129.529 205.356 132.743 205.196 136.596 201.183C140.449 197.17 139.175 193.152 139.175 193.152" stroke="#263238" stroke-linecap="round" stroke-linejoin="round"/>
<path d="M113.302 188.499C113.302 188.499 111.053 192.512 111.858 195.241C112.663 197.97 119.079 195.241 121.488 190.908C123.897 186.575 116.031 184.162 113.302 188.499Z" fill="white" stroke="#263238" stroke-linecap="round" stroke-linejoin="round"/>
<path d="M115.257 164.803L104.874 184.229C104.811 184.348 104.777 184.481 104.776 184.617C104.774 184.752 104.805 184.886 104.865 185.007C104.926 185.128 105.014 185.233 105.124 185.312C105.233 185.392 105.359 185.445 105.493 185.467L115.324 186.952C115.486 186.977 115.652 186.955 115.802 186.887C115.951 186.819 116.077 186.709 116.165 186.57L128.028 167.707C128.101 167.59 128.144 167.456 128.154 167.318C128.163 167.18 128.139 167.042 128.083 166.916C128.027 166.789 127.941 166.678 127.833 166.592C127.725 166.507 127.597 166.448 127.461 166.423L116.113 164.36C115.943 164.34 115.77 164.372 115.617 164.451C115.465 164.53 115.339 164.653 115.257 164.803Z" fill="#263238" stroke="#263238" stroke-linecap="round" stroke-linejoin="round"/>
<path d="M116.665 191.868C116.665 191.868 110.723 188.979 109.759 187.695C108.794 186.41 109.439 185.771 109.439 185.771C109.439 185.771 107.376 184.806 106.55 183.522C105.725 182.238 107.51 181.918 107.51 181.918L118.11 183.981C118.11 183.981 112.487 181.732 111.363 181.732C111.125 181.747 110.887 181.703 110.67 181.603C110.453 181.503 110.265 181.351 110.122 181.16C109.978 180.969 109.885 180.746 109.849 180.51C109.814 180.274 109.838 180.033 109.919 179.808C110.244 178.844 110.563 178.524 112.812 179.163C115.061 179.803 120.518 181.093 120.518 181.093C120.518 181.093 120.353 179.648 119.874 179.328C119.394 179.009 115.056 177.559 114.097 176.595C113.137 175.63 113.932 174.831 115.056 174.831C116.18 174.831 123.407 177.41 124.046 177.879C124.686 178.348 124.046 182.377 124.046 182.377C124.046 182.377 124.046 186.23 123.407 188.159C122.767 190.088 119.244 193.797 119.244 193.797" fill="white"/>
<path d="M116.665 191.868C116.665 191.868 110.723 188.979 109.759 187.695C108.794 186.41 109.439 185.771 109.439 185.771C109.439 185.771 107.376 184.806 106.55 183.522C105.725 182.238 107.51 181.918 107.51 181.918L118.11 183.981C118.11 183.981 112.487 181.732 111.363 181.732C111.125 181.747 110.887 181.703 110.67 181.603C110.453 181.503 110.265 181.351 110.122 181.16C109.978 180.969 109.885 180.746 109.849 180.51C109.814 180.274 109.838 180.033 109.919 179.808C110.244 178.844 110.563 178.524 112.812 179.163C115.061 179.803 120.518 181.093 120.518 181.093C120.518 181.093 120.353 179.648 119.874 179.328C119.394 179.009 115.056 177.559 114.097 176.595C113.137 175.63 113.932 174.831 115.056 174.831C116.18 174.831 123.407 177.41 124.046 177.879C124.686 178.348 124.046 182.377 124.046 182.377C124.046 182.377 124.046 186.23 123.407 188.159C122.767 190.088 119.244 193.797 119.244 193.797" stroke="#263238" stroke-linecap="round" stroke-linejoin="round"/>
<path d="M109.449 185.771L117.315 188.979" stroke="#263238" stroke-linecap="round" stroke-linejoin="round"/>
<path d="M118.12 184.002L122.133 186.57" stroke="#263238" stroke-linecap="round" stroke-linejoin="round"/>
<path d="M120.529 181.113C120.529 181.113 122.453 181.918 123.108 182.717" stroke="#263238" stroke-linecap="round" stroke-linejoin="round"/>
<path d="M66.1166 204.819V228.603C62.0356 227.525 58.0267 226.189 54.1139 224.606V204.819H66.1166Z" fill="#263238" stroke="#263238" stroke-linecap="round" stroke-linejoin="round"/>
<path d="M66.3074 191.713H53.7218C51.648 191.713 49.9668 193.394 49.9668 195.468V204.123C49.9668 206.197 51.648 207.878 53.7218 207.878H66.3074C68.3813 207.878 70.0625 206.197 70.0625 204.123V195.468C70.0625 193.394 68.3813 191.713 66.3074 191.713Z" fill="#263238" stroke="#263238" stroke-linecap="round" stroke-linejoin="round"/>
<path d="M108.454 191.785C102.145 188.572 83.4785 186.245 61.4279 186.245C39.3774 186.245 20.7259 188.572 14.4073 191.785H12.1223V194.173C12.1223 198.552 34.1987 202.101 61.4279 202.101C88.6572 202.101 110.734 198.552 110.734 194.173V191.785H108.454Z" fill="#263238" stroke="#263238" stroke-linecap="round" stroke-linejoin="round"/>
<path d="M61.4279 199.713C88.6587 199.713 110.734 196.164 110.734 191.785C110.734 187.407 88.6587 183.857 61.4279 183.857C34.1972 183.857 12.1223 187.407 12.1223 191.785C12.1223 196.164 34.1972 199.713 61.4279 199.713Z" fill="white" stroke="#263238" stroke-linecap="round" stroke-linejoin="round"/>
<path d="M75.7157 138.136C75.7157 138.136 73.2347 127.552 73.2347 126.505C73.2347 125.458 78.8518 121.93 80.162 121.146C81.4721 120.362 82.643 121.538 82.643 121.538C83.1753 122.005 83.7988 122.356 84.4741 122.57C85.2581 122.698 85.9132 123.601 85.9132 124.659C85.9132 125.716 86.1711 129.497 86.1711 130.41C86.1711 131.323 84.732 132.37 83.948 132.37C83.1639 132.37 83.2981 130.822 83.2981 130.822C82.9987 131.072 82.6456 131.248 82.2664 131.338C82 131.345 81.736 131.39 81.4824 131.472C81.4824 131.472 81.9982 137.352 80.9666 139.313C80.3728 140.394 79.8906 141.533 79.5275 142.712L60.4428 182.826C60.4428 182.826 57.3067 188.711 53.1236 188.84C48.9404 188.969 44.8707 186.096 44.3549 182.176C43.8391 178.256 45.6651 173.809 48.4091 170.673C51.1532 167.537 72.9717 142.712 75.7157 138.136Z" fill="white" stroke="#263238" stroke-linecap="round" stroke-linejoin="round"/>
<path d="M81.4669 131.472V128.728L84.3038 128.687L82.7564 131.601C82.7564 131.601 82.3799 131.08 81.4669 131.472Z" fill="white" stroke="#263238" stroke-linecap="round" stroke-linejoin="round"/>
<path d="M84.474 122.585C84.474 122.585 78.7228 125.195 77.8047 125.979L76.8917 126.768" stroke="#263238" stroke-linecap="round" stroke-linejoin="round"/>
<path d="M82.6223 121.538C82.6223 121.538 76.7421 124.411 74.911 125.979" stroke="#263238" stroke-linecap="round" stroke-linejoin="round"/>
<path d="M74.1477 125.056L74.3231 124.865C75.1329 123.988 78.5062 120.352 78.8518 120.352C79.1974 120.352 80.162 121.136 80.162 121.136L74.1477 125.056Z" stroke="#263238" stroke-linecap="round" stroke-linejoin="round"/>
<path d="M70.8259 144.527C63.4241 153.574 50.4723 168.311 48.3988 170.684C45.6547 173.82 43.8236 178.261 44.3446 182.186C44.8655 186.111 48.9198 188.979 53.1132 188.85C57.3067 188.721 60.4428 182.826 60.4428 182.826L76.7834 148.473C74.6417 147.41 72.6405 146.084 70.8259 144.527Z" fill="#A47DE9" stroke="#263238" stroke-linecap="round" stroke-linejoin="round"/>
<path d="M29.3552 158.949C29.3151 159.695 29.4347 160.44 29.706 161.136C30.7788 163.818 31.0935 164.927 30.655 167.104" stroke="#263238" stroke-miterlimit="10" stroke-linecap="round"/>
<path d="M30.392 155.524C30.0605 156.1 29.8023 156.715 29.6234 157.355" stroke="#263238" stroke-miterlimit="10" stroke-linecap="round"/>
<path d="M34.2244 155.524C34.2244 155.524 32.4449 158.397 33.5436 161.136C34.6423 163.875 34.9259 164.927 34.4927 167.104" stroke="#263238" stroke-miterlimit="10" stroke-linecap="round"/>
<path d="M38.5159 165.52C38.4998 166.053 38.436 166.583 38.3251 167.104" stroke="#263238" stroke-miterlimit="10" stroke-linecap="round"/>
<path d="M38.0621 155.524C38.0621 155.524 36.2826 158.397 37.3761 161.136C37.7146 161.931 38.0107 162.744 38.2632 163.571" stroke="#263238" stroke-miterlimit="10" stroke-linecap="round"/>
<path d="M41.358 172.907C41.358 172.907 43.1324 171.127 44.4529 172.582C45.7733 174.036 45.2627 181.309 44.1279 183.568C42.9931 185.828 40.4038 183.687 40.4038 183.687V182.114C40.5774 182.264 40.7793 182.378 40.9976 182.448C41.2159 182.519 41.4462 182.544 41.6747 182.524C41.9032 182.504 42.1254 182.438 42.3279 182.33C42.5305 182.223 42.7094 182.075 42.8539 181.897C44.1485 180.603 43.7978 175.491 43.3129 174.676C42.8281 173.861 40.8887 175.001 40.8887 175.001L41.358 172.907Z" fill="white" stroke="#263238" stroke-linecap="round" stroke-linejoin="round"/>
<path d="M38.2631 190.563H30.1444C29.5824 190.563 29.0411 190.35 28.6296 189.967C28.2181 189.584 27.9669 189.06 27.9265 188.499L26.5389 169.023H41.8738L40.4966 188.499C40.4572 189.063 40.2041 189.591 39.789 189.974C39.374 190.357 38.8282 190.568 38.2631 190.563Z" fill="white" stroke="#263238" stroke-linecap="round" stroke-linejoin="round"/>
<path d="M213.688 5.58527H187.949L187.923 5.67811C187.16 8.42218 185.406 10.2017 183.462 10.2017H182.348C180.403 10.2017 178.649 8.42218 177.886 5.67811L177.86 5.58527H152.122C150.417 5.58527 148.729 5.92111 147.154 6.57362C145.579 7.22613 144.148 8.18251 142.943 9.38814C141.738 10.5938 140.782 12.025 140.13 13.6001C139.478 15.1752 139.143 16.8634 139.144 18.568V165.572C139.143 167.546 139.925 169.441 141.32 170.838C142.715 172.236 144.607 173.023 146.582 173.025H219.222C221.197 173.024 223.091 172.239 224.488 170.842C225.884 169.446 226.669 167.552 226.671 165.577V18.5732C226.671 16.8678 226.336 15.1791 225.684 13.6033C225.032 12.0276 224.075 10.5958 222.87 9.38965C221.664 8.18355 220.233 7.22678 218.657 6.57401C217.082 5.92125 215.393 5.58527 213.688 5.58527Z" fill="white" stroke="#263238" stroke-linecap="round" stroke-linejoin="round"/>
<path d="M145.339 42.0784V42.2177H144.823V42.0526C144.823 41.5935 144.648 41.3253 144.24 41.3253C143.833 41.3253 143.657 41.5935 143.657 42.0423C143.657 43.1822 145.364 43.2905 145.364 44.7245C145.364 45.493 144.993 45.9933 144.219 45.9933C143.446 45.9933 143.079 45.4775 143.079 44.7245V44.4304H143.595V44.7502C143.595 45.2093 143.781 45.4775 144.188 45.4775C144.596 45.4775 144.782 45.2093 144.782 44.7502C144.782 43.6206 143.085 43.5123 143.085 42.0784C143.085 41.2944 143.446 40.8095 144.209 40.8095C144.972 40.8095 145.339 41.3098 145.339 42.0784Z" fill="#263238"/>
<path d="M146.406 43.6567V45.9417H145.839V40.8611H146.406V43.1461H147.655V40.8611H148.222V45.9417H147.655V43.6567H146.406Z" fill="#263238"/>
<path d="M149.377 44.9205L149.176 45.9521H148.661L149.635 40.8714H150.456L151.425 45.9521H150.863L150.667 44.9205H149.377ZM149.45 44.4047H150.579L150.007 41.4955L149.45 44.4047Z" fill="#263238"/>
<path d="M152.998 40.8611C153.798 40.8611 154.128 41.2685 154.128 42.0216V42.4343C154.128 42.9965 153.937 43.3421 153.499 43.4659C153.963 43.6051 154.138 43.9817 154.138 44.5284V45.3176C154.12 45.526 154.156 45.7355 154.242 45.9262H153.664C153.586 45.7315 153.554 45.5215 153.571 45.3124V44.5129C153.571 43.9404 153.303 43.7547 152.828 43.7547H152.431V45.9262H151.864V40.8456L152.998 40.8611ZM152.854 43.2544C153.303 43.2544 153.571 43.11 153.571 42.558V42.0732C153.571 41.6141 153.406 41.3769 152.983 41.3769H152.431V43.2544H152.854Z" fill="#263238"/>
<path d="M156.532 43.11V43.6258H155.294V45.4311H156.815V45.9469H154.752V40.8663H156.815V41.3821H155.294V43.1152L156.532 43.11Z" fill="#263238"/>
<path d="M159.038 44.9205L158.842 45.9521H158.327L159.296 40.8714H160.116L161.091 45.9521H160.509L160.313 44.9205H159.038ZM159.111 44.4047H160.245L159.673 41.4955L159.111 44.4047Z" fill="#263238"/>
<path d="M162.654 45.9417V40.8611H163.222V45.4259H164.671V45.9417H162.654Z" fill="#263238"/>
<path d="M165.667 40.8611V45.9417H165.099V40.8611H165.667Z" fill="#263238"/>
<path d="M166.75 45.9417H166.234V40.8611H166.956L168.132 44.5336V40.8611H168.648V45.9417H168.06L166.76 41.8153L166.75 45.9417Z" fill="#263238"/>
<path d="M170.082 43.7341L169.783 44.2499V45.9572H169.22V40.8765H169.793V43.3317L171.144 40.8765H171.717L170.433 43.1925L171.763 45.9572H171.181L170.082 43.7341Z" fill="#263238"/>
<path d="M147.717 102.84V105.13H147.149V100.044H147.717V102.36H148.965V100.07H149.532V105.156H148.965V102.866L147.717 102.84Z" fill="#263238"/>
<path d="M150.842 105.13V100.56H149.909V100.044H152.338V100.56H151.405V105.13H150.842Z" fill="#263238"/>
<path d="M153.458 105.13V100.56H152.524V100.044H154.953V100.56H154.02V105.13H153.458Z" fill="#263238"/>
<path d="M156.449 100.044C157.249 100.044 157.589 100.519 157.589 101.287V101.896C157.589 102.706 157.213 103.124 156.408 103.124H155.892V105.13H155.35V100.044H156.449ZM156.408 102.623C156.826 102.623 157.032 102.427 157.032 101.937V101.267C157.032 100.797 156.862 100.565 156.449 100.565H155.908V102.628L156.408 102.623Z" fill="#263238"/>
<path d="M160.23 101.267V101.406H159.714V101.236C159.714 100.782 159.544 100.514 159.137 100.514C158.729 100.514 158.554 100.782 158.554 101.231C158.554 102.371 160.261 102.479 160.261 103.908C160.261 104.681 159.89 105.182 159.111 105.182C158.332 105.182 157.976 104.666 157.976 103.908V103.619H158.492V103.939C158.492 104.398 158.683 104.666 159.09 104.666C159.498 104.666 159.683 104.398 159.683 103.939C159.683 102.804 157.986 102.696 157.986 101.267C157.986 100.483 158.347 99.9979 159.111 99.9979C159.874 99.9979 160.23 100.498 160.23 101.267Z" fill="#263238"/>
<path d="M161.277 101.659V102.36H160.735V101.654L161.277 101.659ZM161.277 104.424V105.13H160.735V104.424H161.277Z" fill="#263238"/>
<path d="M164.181 100.044L162.18 105.13H161.664L163.665 100.044H164.181Z" fill="#263238"/>
<path d="M165.605 100.044L163.603 105.13H163.088L165.089 100.044H165.605Z" fill="#263238"/>
<path d="M166.915 103.304L165.837 100.044H166.425L167.219 102.546L168.019 100.044H168.534L167.451 103.304V105.13H166.894L166.915 103.304Z" fill="#263238"/>
<path d="M168.808 101.272C168.808 100.498 169.195 99.998 169.968 99.998C170.134 99.9878 170.299 100.015 170.453 100.077C170.607 100.139 170.745 100.234 170.857 100.356C170.969 100.478 171.053 100.624 171.102 100.782C171.15 100.941 171.163 101.108 171.139 101.272V103.908C171.163 104.072 171.15 104.24 171.102 104.398C171.053 104.557 170.969 104.703 170.857 104.825C170.745 104.948 170.607 105.044 170.454 105.106C170.3 105.169 170.134 105.196 169.968 105.187C169.195 105.187 168.808 104.671 168.808 103.908V101.272ZM169.365 103.934C169.365 104.398 169.561 104.666 169.968 104.666C170.376 104.666 170.572 104.398 170.572 103.934V101.246C170.572 100.787 170.381 100.514 169.968 100.514C169.556 100.514 169.365 100.787 169.365 101.246V103.934Z" fill="#263238"/>
<path d="M172.212 103.933C172.212 104.387 172.393 104.666 172.81 104.666C173.228 104.666 173.398 104.387 173.398 103.933V100.044H173.914V103.908C173.914 104.676 173.558 105.192 172.774 105.192C171.99 105.192 171.645 104.676 171.645 103.908V100.049H172.202L172.212 103.933Z" fill="#263238"/>
<path d="M175.616 100.044C176.416 100.044 176.751 100.452 176.751 101.21V101.623C176.782 101.842 176.736 102.065 176.62 102.253C176.504 102.441 176.326 102.583 176.117 102.654C176.586 102.788 176.756 103.17 176.756 103.712V104.506C176.741 104.714 176.777 104.923 176.86 105.115H176.287C176.207 104.919 176.175 104.707 176.194 104.496V103.696C176.194 103.124 175.921 102.943 175.451 102.943H175.054V105.115H174.487V100.029L175.616 100.044ZM175.472 102.443C175.921 102.443 176.194 102.298 176.194 101.746V101.262C176.194 100.803 176.024 100.56 175.606 100.56H175.054V102.443H175.472Z" fill="#263238"/>
<path d="M177.344 105.13V100.044H177.912V104.614H179.366V105.13H177.344Z" fill="#263238"/>
<path d="M180.362 100.044V105.13H179.794V100.044H180.362Z" fill="#263238"/>
<path d="M181.44 105.13H180.924V100.044H181.656L182.832 103.722V100.044H183.348V105.13H182.74L181.44 101.004V105.13Z" fill="#263238"/>
<path d="M184.751 102.923L184.457 103.438V105.146H183.89V100.06H184.457V102.515L185.804 100.06H186.381L185.097 102.381L186.422 105.146H185.845L184.751 102.923Z" fill="#263238"/>
<path d="M189.203 100.044L187.201 105.13H186.686L188.687 100.044H189.203Z" fill="#263238"/>
<path d="M210.878 102.926C210.622 102.926 210.402 102.866 210.217 102.745C210.032 102.624 209.89 102.458 209.791 102.246C209.691 102.034 209.642 101.792 209.642 101.52C209.642 101.243 209.693 100.998 209.794 100.787C209.897 100.573 210.041 100.407 210.224 100.288C210.409 100.167 210.624 100.106 210.87 100.106C211.062 100.106 211.235 100.142 211.389 100.213C211.543 100.284 211.669 100.383 211.767 100.511C211.865 100.639 211.926 100.788 211.95 100.959H211.531C211.499 100.834 211.428 100.724 211.318 100.628C211.209 100.531 211.062 100.483 210.878 100.483C210.714 100.483 210.571 100.526 210.448 100.611C210.326 100.695 210.231 100.814 210.162 100.968C210.094 101.12 210.061 101.3 210.061 101.506C210.061 101.716 210.094 101.9 210.16 102.056C210.228 102.212 210.322 102.334 210.444 102.42C210.567 102.506 210.712 102.55 210.878 102.55C210.986 102.55 211.085 102.531 211.174 102.493C211.263 102.455 211.338 102.401 211.4 102.329C211.461 102.258 211.505 102.173 211.531 102.074H211.95C211.926 102.235 211.868 102.38 211.774 102.509C211.682 102.637 211.559 102.738 211.407 102.814C211.255 102.889 211.079 102.926 210.878 102.926ZM213.67 102.926C213.424 102.926 213.208 102.867 213.022 102.75C212.838 102.633 212.693 102.469 212.589 102.258C212.486 102.048 212.435 101.802 212.435 101.52C212.435 101.236 212.486 100.988 212.589 100.776C212.693 100.564 212.838 100.399 213.022 100.282C213.208 100.165 213.424 100.106 213.67 100.106C213.917 100.106 214.132 100.165 214.317 100.282C214.503 100.399 214.647 100.564 214.75 100.776C214.854 100.988 214.906 101.236 214.906 101.52C214.906 101.802 214.854 102.048 214.75 102.258C214.647 102.469 214.503 102.633 214.317 102.75C214.132 102.867 213.917 102.926 213.67 102.926ZM213.67 102.55C213.858 102.55 214.011 102.502 214.132 102.406C214.253 102.31 214.342 102.184 214.4 102.028C214.458 101.871 214.487 101.702 214.487 101.52C214.487 101.338 214.458 101.168 214.4 101.01C214.342 100.853 214.253 100.726 214.132 100.628C214.011 100.531 213.858 100.483 213.67 100.483C213.483 100.483 213.33 100.531 213.209 100.628C213.088 100.726 212.999 100.853 212.941 101.01C212.883 101.168 212.854 101.338 212.854 101.52C212.854 101.702 212.883 101.871 212.941 102.028C212.999 102.184 213.088 102.31 213.209 102.406C213.33 102.502 213.483 102.55 213.67 102.55ZM215.546 103.892V100.142H215.951V100.575H216C216.031 100.528 216.074 100.468 216.128 100.394C216.184 100.32 216.263 100.253 216.366 100.195C216.47 100.136 216.611 100.106 216.789 100.106C217.018 100.106 217.221 100.164 217.396 100.279C217.571 100.394 217.708 100.556 217.806 100.767C217.904 100.978 217.954 101.226 217.954 101.513C217.954 101.802 217.904 102.052 217.806 102.264C217.708 102.474 217.572 102.638 217.398 102.754C217.224 102.869 217.023 102.926 216.796 102.926C216.621 102.926 216.48 102.897 216.375 102.839C216.27 102.78 216.189 102.713 216.132 102.638C216.075 102.563 216.031 102.5 216 102.45H215.965V103.892H215.546ZM215.958 101.506C215.958 101.712 215.988 101.893 216.048 102.051C216.109 102.207 216.197 102.329 216.313 102.418C216.429 102.506 216.571 102.55 216.739 102.55C216.914 102.55 217.06 102.503 217.178 102.411C217.296 102.318 217.385 102.192 217.444 102.035C217.504 101.876 217.535 101.7 217.535 101.506C217.535 101.314 217.505 101.141 217.446 100.987C217.388 100.832 217.3 100.71 217.181 100.62C217.064 100.528 216.917 100.483 216.739 100.483C216.569 100.483 216.425 100.526 216.309 100.613C216.193 100.698 216.106 100.817 216.047 100.971C215.987 101.124 215.958 101.302 215.958 101.506ZM218.765 103.892C218.694 103.892 218.631 103.886 218.575 103.874C218.519 103.864 218.481 103.853 218.46 103.842L218.566 103.473C218.668 103.499 218.758 103.508 218.836 103.501C218.914 103.494 218.983 103.459 219.044 103.397C219.105 103.335 219.162 103.235 219.212 103.097L219.291 102.883L218.282 100.142H218.737L219.489 102.315H219.518L220.271 100.142H220.725L219.568 103.267C219.516 103.408 219.451 103.524 219.374 103.617C219.297 103.71 219.208 103.78 219.106 103.825C219.005 103.869 218.892 103.892 218.765 103.892Z" fill="#A47DE9"/>
<path d="M142.481 118.345H222.467" stroke="#263238" stroke-miterlimit="10"/>
<path d="M149.646 61.1476C152.722 61.1476 155.216 58.6536 155.216 55.577C155.216 52.5004 152.722 50.0063 149.646 50.0063C146.569 50.0063 144.075 52.5004 144.075 55.577C144.075 58.6536 146.569 61.1476 149.646 61.1476Z" fill="#263238" stroke="#263238" stroke-linecap="round" stroke-linejoin="round"/>
<path d="M166.358 61.1476C169.434 61.1476 171.928 58.6536 171.928 55.577C171.928 52.5004 169.434 50.0063 166.358 50.0063C163.281 50.0063 160.787 52.5004 160.787 55.577C160.787 58.6536 163.281 61.1476 166.358 61.1476Z" fill="#A47DE9" stroke="#263238" stroke-linecap="round" stroke-linejoin="round"/>
<path d="M183.07 61.1476C186.146 61.1476 188.64 58.6536 188.64 55.577C188.64 52.5004 186.146 50.0063 183.07 50.0063C179.993 50.0063 177.499 52.5004 177.499 55.577C177.499 58.6536 179.993 61.1476 183.07 61.1476Z" fill="#263238" stroke="#263238" stroke-linecap="round" stroke-linejoin="round"/>
<path d="M199.787 61.1476C202.864 61.1476 205.358 58.6536 205.358 55.577C205.358 52.5004 202.864 50.0063 199.787 50.0063C196.71 50.0063 194.216 52.5004 194.216 55.577C194.216 58.6536 196.71 61.1476 199.787 61.1476Z" fill="#A47DE9" stroke="#263238" stroke-linecap="round" stroke-linejoin="round"/>
<path d="M216.499 61.1476C219.576 61.1476 222.07 58.6536 222.07 55.577C222.07 52.5004 219.576 50.0063 216.499 50.0063C213.422 50.0063 210.928 52.5004 210.928 55.577C210.928 58.6536 213.422 61.1476 216.499 61.1476Z" fill="#263238" stroke="#263238" stroke-linecap="round" stroke-linejoin="round"/>
<path d="M144.869 64.7273H154.417" stroke="#263238" stroke-miterlimit="10"/>
<path d="M161.581 64.7273H171.134" stroke="#263238" stroke-miterlimit="10"/>
<path d="M178.299 64.7273H187.846" stroke="#263238" stroke-miterlimit="10"/>
<path d="M195.011 64.7273H204.563" stroke="#263238" stroke-miterlimit="10"/>
<path d="M211.723 64.7273H221.275" stroke="#263238" stroke-miterlimit="10"/>
<path d="M150.939 82.0739C153.932 81.3635 155.783 78.361 155.073 75.3675C154.362 72.3741 151.36 70.5233 148.366 71.2336C145.373 71.944 143.522 74.9466 144.232 77.94C144.943 80.9335 147.945 82.7843 150.939 82.0739Z" fill="#A47DE9" stroke="#263238" stroke-linecap="round" stroke-linejoin="round"/>
<path d="M171.503 78.775C172.672 75.9293 171.313 72.6744 168.467 71.505C165.622 70.3356 162.367 71.6944 161.198 74.5401C160.028 77.3858 161.387 80.6407 164.233 81.8101C167.078 82.9795 170.333 81.6207 171.503 78.775Z" fill="#263238" stroke="#263238" stroke-linecap="round" stroke-linejoin="round"/>
<path d="M188.212 78.7759C189.382 75.9302 188.023 72.6753 185.177 71.5059C182.331 70.3365 179.077 71.6954 177.907 74.541C176.738 77.3867 178.097 80.6416 180.942 81.811C183.788 82.9804 187.043 81.6216 188.212 78.7759Z" fill="#A47DE9" stroke="#263238" stroke-linecap="round" stroke-linejoin="round"/>
<path d="M201.076 82.071C204.07 81.3606 205.921 78.358 205.21 75.3646C204.5 72.3711 201.497 70.5203 198.504 71.2307C195.51 71.9411 193.66 74.9436 194.37 77.9371C195.08 80.9306 198.083 82.7814 201.076 82.071Z" fill="#263238" stroke="#263238" stroke-linecap="round" stroke-linejoin="round"/>
<path d="M220.438 80.6053C222.613 78.4298 222.613 74.9027 220.438 72.7272C218.262 70.5517 214.735 70.5517 212.56 72.7272C210.384 74.9027 210.384 78.4298 212.56 80.6053C214.735 82.7808 218.262 82.7808 220.438 80.6053Z" fill="#A47DE9" stroke="#263238" stroke-linecap="round" stroke-linejoin="round"/>
<path d="M144.869 85.8185H154.417" stroke="#263238" stroke-miterlimit="10"/>
<path d="M161.581 85.8185H171.134" stroke="#263238" stroke-miterlimit="10"/>
<path d="M178.299 85.8185H187.846" stroke="#263238" stroke-miterlimit="10"/>
<path d="M195.011 85.8185H204.563" stroke="#263238" stroke-miterlimit="10"/>
<path d="M211.723 85.8185H221.275" stroke="#263238" stroke-miterlimit="10"/>
<path d="M222.869 97.2538H142.084V108.792H222.869V97.2538Z" stroke="#263238" stroke-miterlimit="10"/>
<path d="M226.671 29.2452V18.568C226.671 15.1248 225.303 11.8226 222.868 9.38783C220.433 6.95309 217.131 5.58527 213.688 5.58527H187.949L187.923 5.67811C187.16 8.42218 185.406 10.2017 183.462 10.2017H182.348C180.403 10.2017 178.649 8.42218 177.886 5.67811L177.86 5.58527H152.122C150.417 5.58527 148.729 5.92111 147.154 6.57362C145.579 7.22613 144.148 8.18251 142.943 9.38814C141.738 10.5938 140.782 12.025 140.13 13.6001C139.478 15.1752 139.143 16.8634 139.144 18.568V29.2452H226.671Z" fill="#C2C2C2" stroke="#263238" stroke-linecap="round" stroke-linejoin="round"/>
<path d="M176.612 23.788H147.366V27.2955H176.612V23.788Z" fill="white" stroke="#263238" stroke-linecap="round" stroke-linejoin="round"/>
<path d="M226.671 22.3489V18.568C226.671 15.1248 225.303 11.8226 222.868 9.38783C220.433 6.95309 217.131 5.58527 213.688 5.58527H187.949L187.923 5.67811C187.16 8.42218 185.406 10.2017 183.462 10.2017H182.348C180.403 10.2017 178.649 8.42218 177.886 5.67811L177.86 5.58527H152.122C150.417 5.58527 148.729 5.92111 147.154 6.57362C145.579 7.22613 144.148 8.18251 142.943 9.38814C141.738 10.5938 140.782 12.025 140.13 13.6001C139.478 15.1752 139.143 16.8634 139.144 18.568V22.3489H226.671Z" fill="white" stroke="#263238" stroke-linecap="round" stroke-linejoin="round"/>
<path d="M232.236 53.1063V36.6573H230.751V15.5971C230.751 13.8919 230.415 12.2035 229.762 10.6284C229.109 9.05317 228.152 7.62207 226.946 6.41685C225.74 5.21164 224.308 4.25593 222.732 3.60435C221.156 2.95277 219.468 2.61809 217.763 2.61945H148.042C146.337 2.61877 144.649 2.95399 143.074 3.60593C141.5 4.25788 140.069 5.21377 138.863 6.41899C137.658 7.62421 136.702 9.05512 136.05 10.6299C135.398 12.2048 135.063 13.8926 135.064 15.5971V167.475C135.063 169.18 135.398 170.868 136.05 172.443C136.702 174.018 137.658 175.45 138.863 176.655C140.068 177.861 141.499 178.817 143.074 179.47C144.649 180.122 146.337 180.458 148.042 180.458H217.763C221.206 180.458 224.508 179.09 226.943 176.655C229.378 174.221 230.745 170.919 230.745 167.475V67.1258H232.231V57.4081H230.745V53.1063H232.236ZM226.671 158.206C226.671 159.911 226.335 161.599 225.682 163.174C225.03 164.749 224.073 166.18 222.868 167.385C221.662 168.59 220.231 169.546 218.656 170.198C217.081 170.849 215.393 171.185 213.688 171.184H152.122C150.417 171.185 148.729 170.849 147.154 170.197C145.58 169.545 144.149 168.59 142.944 167.384C141.738 166.179 140.782 164.748 140.13 163.173C139.479 161.599 139.143 159.911 139.144 158.206V18.5681C139.143 16.8634 139.478 15.1753 140.13 13.6002C140.782 12.0251 141.738 10.5938 142.943 9.38819C144.148 8.18257 145.579 7.22618 147.154 6.57367C148.729 5.92116 150.417 5.58532 152.122 5.58532H177.86L177.886 5.67816C178.649 8.42224 180.403 10.2018 182.348 10.2018H183.462C185.406 10.2018 187.16 8.42224 187.923 5.67816L187.949 5.58532H213.688C217.131 5.58532 220.433 6.95314 222.868 9.38788C225.303 11.8226 226.671 15.1248 226.671 18.5681V158.206Z" fill="#707070" stroke="#263238" stroke-linecap="round" stroke-linejoin="round"/>
<path d="M215.493 4.40411H150.316C146.669 4.40548 143.171 5.85542 140.592 8.43511C138.014 11.0148 136.565 14.513 136.565 18.1606V164.917C136.565 168.564 138.014 172.062 140.593 174.641C143.171 177.219 146.669 178.668 150.316 178.668H215.493C217.299 178.669 219.088 178.314 220.756 177.623C222.425 176.932 223.941 175.919 225.218 174.642C226.495 173.365 227.508 171.849 228.199 170.18C228.89 168.511 229.245 166.723 229.244 164.917V18.1606C229.245 16.3543 228.89 14.5656 228.199 12.8966C227.508 11.2276 226.496 9.71108 225.219 8.4336C223.942 7.15613 222.425 6.14275 220.757 5.45136C219.088 4.75997 217.299 4.40411 215.493 4.40411ZM226.671 158.206C226.671 159.911 226.335 161.599 225.682 163.174C225.03 164.749 224.073 166.18 222.868 167.385C221.662 168.59 220.231 169.546 218.656 170.198C217.081 170.849 215.393 171.185 213.688 171.184H152.122C150.417 171.185 148.729 170.849 147.154 170.197C145.58 169.545 144.149 168.59 142.944 167.384C141.738 166.179 140.782 164.748 140.13 163.173C139.479 161.599 139.143 159.911 139.144 158.206V18.5681C139.143 16.8634 139.478 15.1753 140.13 13.6002C140.782 12.0251 141.738 10.5938 142.943 9.38818C144.148 8.18255 145.579 7.22617 147.154 6.57366C148.729 5.92115 150.417 5.5853 152.122 5.5853H177.86L177.886 5.67815C178.649 8.42222 180.403 10.2017 182.348 10.2017H183.462C185.406 10.2017 187.16 8.42222 187.923 5.67815L187.949 5.5853H213.688C217.131 5.5853 220.433 6.95313 222.868 9.38787C225.303 11.8226 226.671 15.1248 226.671 18.5681V158.206Z" fill="#263238" stroke="#263238" stroke-linecap="round" stroke-linejoin="round"/>
<path d="M183.859 6.20945C183.855 5.96859 183.78 5.7343 183.643 5.53601C183.506 5.33771 183.314 5.18424 183.09 5.09487C182.866 5.0055 182.621 4.98422 182.386 5.03369C182.15 5.08316 181.934 5.20119 181.765 5.37294C181.596 5.5447 181.482 5.76253 181.436 5.99908C181.391 6.23563 181.416 6.48036 181.509 6.70254C181.602 6.92471 181.759 7.11443 181.96 7.24786C182.16 7.3813 182.396 7.4525 182.636 7.45254C182.799 7.45256 182.959 7.42027 183.109 7.35755C183.259 7.29483 183.394 7.20293 183.508 7.08722C183.622 6.97151 183.712 6.83431 183.772 6.6836C183.832 6.5329 183.862 6.37171 183.859 6.20945Z" fill="#707070"/>
<path d="M146.922 10.8775C146.922 12.1102 145.535 12.5538 145.53 13.4926V13.5596H146.871V13.9723H145.081V13.6422C145.081 12.3217 146.463 12.069 146.463 10.9136C146.463 10.4958 146.324 10.274 145.983 10.274C145.643 10.274 145.504 10.5112 145.504 10.8723V11.2385H145.081V10.9032C145.081 10.2791 145.365 9.87164 145.999 9.87164C146.633 9.87164 146.922 10.2533 146.922 10.8775Z" fill="#263238"/>
<path d="M149.161 10.8723V10.9754C149.18 11.1529 149.14 11.3319 149.047 11.4841C148.953 11.6363 148.812 11.7532 148.645 11.8162C148.813 11.8812 148.955 11.9999 149.048 12.1539C149.141 12.3078 149.181 12.4884 149.161 12.6673V12.9819C149.161 13.606 148.872 14.0135 148.238 14.0135C147.603 14.0135 147.325 13.606 147.325 12.9819V12.6982H147.748V13.0077C147.748 13.3791 147.902 13.6009 148.227 13.6009C148.552 13.6009 148.707 13.3842 148.707 12.9664V12.6518C148.707 12.2495 148.537 12.0586 148.191 12.0483H147.949V11.6357H148.217C148.521 11.6357 148.707 11.4345 148.707 11.0734V10.8877C148.707 10.4699 148.563 10.2533 148.227 10.2533C147.892 10.2533 147.748 10.4803 147.748 10.8465V11.0631H147.325V10.8774C147.325 10.2533 147.613 9.84583 148.238 9.84583C148.862 9.84583 149.161 10.2482 149.161 10.8723Z" fill="#263238"/>
<path d="M150.043 11.1818V11.7491H149.604V11.1818H150.043ZM150.043 13.4049V13.9723H149.604V13.4049H150.043Z" fill="#263238"/>
<path d="M150.966 11.548C151.026 11.4407 151.115 11.3523 151.222 11.293C151.33 11.2337 151.452 11.2059 151.575 11.2127C152.091 11.2127 152.333 11.5944 152.333 12.1824V12.9819C152.333 13.6061 152.034 14.0135 151.41 14.0135C150.786 14.0135 150.492 13.6061 150.492 12.9819V12.7086H150.92V13.0077C150.92 13.3791 151.069 13.6009 151.399 13.6009C151.73 13.6009 151.874 13.3791 151.874 13.0077V12.2134C151.874 11.8472 151.724 11.6254 151.399 11.6254C151.34 11.6226 151.28 11.6318 151.224 11.6526C151.169 11.6733 151.117 11.7051 151.074 11.746C151.031 11.7869 150.996 11.8361 150.972 11.8907C150.948 11.9454 150.936 12.0042 150.935 12.0638V12.1566H150.507L150.621 9.88196H152.256V10.2946H151.049L150.966 11.548Z" fill="#263238"/>
<path d="M154.608 10.8671V10.9393H154.18V10.8362C154.18 10.4699 154.025 10.2533 153.695 10.2533C153.365 10.2533 153.179 10.4751 153.179 10.9135V11.8317C153.225 11.696 153.315 11.5795 153.434 11.5002C153.554 11.4209 153.696 11.3833 153.839 11.3932C154.355 11.3932 154.597 11.7698 154.597 12.3629V12.9819C154.597 13.606 154.288 14.0135 153.664 14.0135C153.04 14.0135 152.72 13.606 152.72 12.9819V10.9187C152.72 10.2739 153.014 9.88708 153.664 9.88708C154.314 9.88708 154.608 10.2378 154.608 10.8671ZM153.2 12.4145V13.0283C153.2 13.3997 153.349 13.6215 153.684 13.6215C154.02 13.6215 154.169 13.3997 154.169 13.0283V12.3939C154.169 12.0277 154.009 11.8059 153.684 11.8059C153.359 11.8059 153.2 12.0277 153.2 12.3939V12.4145Z" fill="#263238"/>
<path d="M199.256 11.0477H198.1V13.9362H199.256V11.0477Z" fill="#263238"/>
<path d="M200.798 10.4648H199.643V13.931H200.798V10.4648Z" fill="#263238"/>
<path d="M202.335 10.0573H201.18V13.931H202.335V10.0573Z" fill="#263238"/>
<path d="M203.877 9.34033H202.722V13.931H203.877V9.34033Z" fill="#263238"/>
<path d="M218.17 13.8536H211.238V9.6189H218.17V13.8536ZM211.625 13.4668H217.763V10.0315H211.625V13.4668Z" fill="#263238"/>
<path d="M215.859 10.4235H212.202V13.049H215.859V10.4235Z" fill="#263238"/>
<path d="M218.799 11.2385H217.928V12.234H218.799V11.2385Z" fill="#263238"/>
<path d="M208.7 12.9304C208.653 12.9314 208.606 12.9188 208.566 12.8942C207.158 12.0586 206.224 12.8375 206.183 12.8942C206.131 12.9359 206.065 12.956 205.999 12.9504C205.933 12.9447 205.871 12.9137 205.827 12.8638C205.784 12.8139 205.761 12.749 205.763 12.6826C205.766 12.6162 205.795 12.5534 205.842 12.5074C205.894 12.461 207.086 11.4397 208.829 12.4764C208.888 12.5119 208.931 12.569 208.948 12.6355C208.965 12.702 208.956 12.7727 208.922 12.8323C208.896 12.8656 208.862 12.892 208.823 12.909C208.784 12.9261 208.742 12.9334 208.7 12.9304Z" fill="#263238"/>
<path d="M209.221 12.0638C209.174 12.0623 209.128 12.0499 209.087 12.0277C207.049 10.8156 205.677 11.9864 205.662 11.9967C205.61 12.0384 205.544 12.0585 205.478 12.0528C205.412 12.0472 205.35 12.0162 205.307 11.9663C205.263 11.9164 205.24 11.8515 205.242 11.7851C205.245 11.7187 205.274 11.6559 205.321 11.6099C205.321 11.6099 206.993 10.176 209.35 11.5789C209.401 11.6065 209.441 11.6504 209.464 11.7036C209.487 11.7568 209.492 11.8162 209.477 11.8723C209.462 11.9283 209.429 11.9777 209.382 12.0124C209.336 12.0472 209.279 12.0653 209.221 12.0638Z" fill="#263238"/>
<path d="M209.696 11.0631C209.648 11.0641 209.602 11.0516 209.561 11.027C206.982 9.47961 205.26 10.9393 205.187 11.027C205.164 11.051 205.136 11.0701 205.105 11.0831C205.074 11.0962 205.04 11.1029 205.007 11.1029C204.973 11.1029 204.94 11.0962 204.909 11.0831C204.878 11.0701 204.85 11.051 204.826 11.027C204.779 10.9788 204.753 10.914 204.753 10.8465C204.753 10.779 204.779 10.7142 204.826 10.666C204.826 10.666 206.89 8.90191 209.804 10.635C209.863 10.6704 209.905 10.7275 209.923 10.794C209.94 10.8606 209.931 10.9312 209.897 10.9909C209.87 11.0166 209.839 11.0364 209.804 11.0488C209.769 11.0613 209.732 11.0662 209.696 11.0631Z" fill="#263238"/>
<path d="M207.921 13.3636C207.922 13.4924 207.885 13.6185 207.814 13.7261C207.743 13.8336 207.642 13.9178 207.524 13.9677C207.405 14.0177 207.274 14.0313 207.148 14.0068C207.021 13.9823 206.905 13.9209 206.814 13.8302C206.722 13.7395 206.66 13.6237 206.634 13.4975C206.609 13.3713 206.621 13.2403 206.67 13.1213C206.719 13.0022 206.803 12.9004 206.91 12.8288C207.017 12.7571 207.142 12.7189 207.271 12.7189C207.443 12.7189 207.607 12.7866 207.729 12.9074C207.851 13.0282 207.92 13.1922 207.921 13.3636Z" fill="#263238"/>
</svg>
